<svg xmlns="http://www.w3.org/2000/svg" id="Grupo_1210" width="194.704" height="194.704" viewBox="0 0 194.704 194.704">
    <defs>
        <style>
            .cls-2{fill:#fff}
        </style>
    </defs>
    <circle id="Elipse_107" cx="97.352" cy="97.352" r="97.352" fill="#c5c218"/>
    <g id="Grupo_1206" transform="translate(70.138 15.037)">
        <g id="Grupo_1205">
            <path id="Trazado_41987" d="M1552.1 140.454a8.8 8.8 0 0 1 6.4-11.044 8.646 8.646 0 0 1 8.267 2.034l-2.412 2.413a5.009 5.009 0 0 0-5-1.236 5.692 5.692 0 0 0 2.928 11 5.012 5.012 0 0 0 3.73-3.534l3.292.894a8.586 8.586 0 0 1-6.161 5.874 8.813 8.813 0 0 1-11.044-6.401z" class="cls-2" transform="translate(-1551.766 -127.185)"/>
            <path id="Trazado_41988" d="M1590.621 138.923a5.1 5.1 0 0 1-5.325 5.122l-7.366.118-.281-17.36 6.846-.111a4.965 4.965 0 0 1 5.362 4.8 4.3 4.3 0 0 1-1.581 3.5 4.4 4.4 0 0 1 2.345 3.931zm-9.5-8.976l.061 3.82 3.422-.056a1.91 1.91 0 0 0-.061-3.819zm6.1 8.808a1.961 1.961 0 0 0-2.042-2l-3.943.064.066 4.092 3.944-.064a1.968 1.968 0 0 0 1.973-2.093z" class="cls-2" transform="translate(-1557.077 -126.691)"/>
            <path id="Trazado_41989" d="M1614.049 139.743a8.359 8.359 0 0 1-10.218 6.382l-6.686-1.679 4.228-16.835 6.686 1.679a8.359 8.359 0 0 1 5.99 10.453zm-3.174-.8c.779-3.1-.7-5.749-3.614-6.481l-3.366-.846-2.634 10.486 3.367.846c2.91.733 5.467-.9 6.246-4.003z" class="cls-2" transform="translate(-1561.078 -126.88)"/>
        </g>
    </g>
    <g id="Grupo_1209" transform="translate(23.393 123.446)">
        <g id="Grupo_1208">
            <g id="Grupo_1207">
                <path id="Trazado_41990" d="M1497.826 264.209a8.8 8.8 0 0 1 12.2 3.756 8.646 8.646 0 0 1-.127 8.51l-2.891-1.808a5.008 5.008 0 0 0 .081-5.148 5.69 5.69 0 0 0-10.058 5.322 5.009 5.009 0 0 0 4.279 2.841l-.132 3.407a8.583 8.583 0 0 1-7.106-4.683 8.812 8.812 0 0 1 3.754-12.197z" class="cls-2" transform="translate(-1492.951 -263.091)"/>
                <path id="Trazado_41991" d="M1512.669 297.28l-4.672-5.1-3.008 1.342-2.5-2.725 16.905-7.243 2.864 3.128-8.678 16.218-2.512-2.744zm1.639-2.947l3.623-6.546-6.838 3.034z" class="cls-2" transform="translate(-1494.909 -267.29)"/>
                <path id="Trazado_41992" d="M1542.839 301.523l-9.524 14.508-2.177-1.429-.394-12.953-5.823 8.871-2.86-1.878 9.525-14.508 2.175 1.429.408 12.932 5.81-8.85z" class="cls-2" transform="translate(-1498.925 -269.462)"/>
                <path id="Trazado_41993" d="M1562.808 309.405l-5.612 16.427-2.463-.842-3.609-12.448-3.431 10.043-3.239-1.106 5.612-16.427 2.464.841 3.617 12.426 3.423-10.021z" class="cls-2" transform="translate(-1503.52 -271.702)"/>
                <path id="Trazado_41994" d="M1579.387 326.318l-6.9-.538-1.282 3.034-3.685-.287 7.408-16.838 4.228.33 4.733 17.784-3.708-.289zm-.815-3.273l-1.822-7.257-2.926 6.887z" class="cls-2" transform="translate(-1508.254 -273.064)"/>
                <path id="Trazado_41995" d="M1606.21 322.166a5.1 5.1 0 0 1-4.55 5.822l-7.276 1.156-2.725-17.144 6.761-1.075a4.963 4.963 0 0 1 5.985 4 4.3 4.3 0 0 1-1.071 3.686 4.4 4.4 0 0 1 2.876 3.555zm-10.669-7.547l.6 3.773 3.38-.537a1.911 1.911 0 0 0-.6-3.773zm7.277 7.86a1.962 1.962 0 0 0-2.3-1.694l-3.9.619.642 4.042 3.9-.619a1.967 1.967 0 0 0 1.659-2.347z" class="cls-2" transform="translate(-1513.207 -272.891)"/>
                <path id="Trazado_41996" d="M1613.584 307.13l5.586 16.435-3.24 1.1-5.586-16.435z" class="cls-2" transform="translate(-1517.042 -272.129)"/>
                <path id="Trazado_41997" d="M1636 304.882a8.359 8.359 0 0 1-2.98 11.675l-5.994 3.4-8.574-15.093 5.994-3.406a8.361 8.361 0 0 1 11.554 3.424zm-2.846 1.617c-1.58-2.782-4.481-3.672-7.091-2.19l-3.019 1.714 5.34 9.4 3.019-1.715c2.608-1.479 3.33-4.428 1.75-7.208z" class="cls-2" transform="translate(-1518.705 -270.738)"/>
                <path id="Trazado_41998" d="M1639.9 291.364l11.231 13.235-2.609 2.214-11.231-13.235z" class="cls-2" transform="translate(-1522.572 -268.893)"/>
                <path id="Trazado_41999" d="M1651.035 292.4a9.015 9.015 0 1 1 12.662-1.482 8.931 8.931 0 0 1-12.662 1.482zm9.043-11.472a5.605 5.605 0 1 0 .99 7.918 5.5 5.5 0 0 0-.99-7.921z" class="cls-2" transform="translate(-1524.678 -265.795)"/>
                <path id="Trazado_42000" d="M1675.228 265.162l2.978 1.362-4.18 9.136-15.79-7.225 1.424-3.113 12.812 5.862z" class="cls-2" transform="translate(-1526.87 -263.516)"/>
            </g>
        </g>
    </g>
    <path id="Trazado_42001" d="M1617.212 229.722a33.934 33.934 0 0 0-19.919-6.5 42.265 42.265 0 0 0 16.778-28.3 2.314 2.314 0 0 0-2.6-2.6A42.47 42.47 0 0 0 1587.2 204.4c-.223.223-.418.463-.635.69.01-.412.025-.831.025-1.229 0-10.96-3.677-28.1-9.855-37.462a2.3 2.3 0 0 0-3.838 0c-6.178 9.36-9.855 26.5-9.855 37.462 0 .4.015.817.025 1.229-.217-.227-.412-.467-.635-.69a42.47 42.47 0 0 0-24.265-12.081 2.315 2.315 0 0 0-2.6 2.6 42.255 42.255 0 0 0 16.778 28.294 33.947 33.947 0 0 0-19.92 6.5 2.3 2.3 0 0 0 0 3.7 33.836 33.836 0 0 0 26.62 5.844 23.35 23.35 0 0 0-5.557 10.884 2.333 2.333 0 0 0 2.773 2.746 23.481 23.481 0 0 0 14.909-10.308v20.261a1.512 1.512 0 0 0 1.512 1.512h4.272a1.512 1.512 0 0 0 1.512-1.512v-20.25a23.475 23.475 0 0 0 14.909 10.308 2.333 2.333 0 0 0 2.773-2.746 23.351 23.351 0 0 0-5.557-10.884 33.838 33.838 0 0 0 26.62-5.843 2.3 2.3 0 0 0 .001-3.703z" class="cls-2" transform="translate(-1477.467 -119.592)"/>
</svg>
