<svg xmlns="http://www.w3.org/2000/svg" id="Grupo_1204" width="194.704" height="194.704" viewBox="0 0 194.704 194.704">
    <defs>
        <style>
            .cls-2{fill:#fff}
        </style>
    </defs>
    <circle id="Elipse_106" cx="97.352" cy="97.352" r="97.352" fill="#e7472c"/>
    <g id="Grupo_1202" transform="translate(40.895 15.036)">
        <g id="Grupo_1201">
            <path id="Trazado_41973" d="M1207.7 156.851l2.1 2.516-8.249 6.873-11.113-13.34 8.154-6.795 2.1 2.516-5.524 4.6 2.364 2.839 5.049-4.207 2.064 2.477-5.049 4.207 2.492 2.992z" class="cls-2" transform="translate(-1190.438 -130.675)"/>
            <path id="Trazado_41974" d="M1219.872 133.726l7.735 15.544-2.332 1.16-11.391-6.19 4.729 9.5-3.064 1.525-7.734-15.544 2.332-1.16 11.378 6.167-4.717-9.481z" class="cls-2" transform="translate(-1194.004 -128.134)"/>
            <path id="Trazado_41975" d="M1245.694 141.454l.735 3.19-10.466 2.411-3.9-16.919 10.345-2.383.735 3.19-7.009 1.614.829 3.6 6.405-1.475.723 3.143-6.4 1.475.874 3.794z" class="cls-2" transform="translate(-1198.981 -126.908)"/>
            <path id="Trazado_41976" d="M1259.4 138.04l-2.6.042.1 6.027-3.422.055-.28-17.36 6.944-.113a5.765 5.765 0 0 1 5.872 5.661 5.658 5.658 0 0 1-3.267 5.113l3.95 6.485-3.7.06zm-2.652-2.958l3.522-.057a2.577 2.577 0 0 0-.083-5.134l-3.521.056z" class="cls-2" transform="translate(-1203.315 -126.69)"/>
            <path id="Trazado_41977" d="M1291.5 141.384c-1.288 4.841-5.57 7.14-10.386 5.858a9.029 9.029 0 1 1 4.452-17.5 8.811 8.811 0 0 1 6.269 5.852l-3.261.877a5.313 5.313 0 0 0-3.886-3.523 5.525 5.525 0 0 0-6.962 4.075c-.829 3.115.775 6.056 4.273 6.988 2.637.7 4.652-.122 5.738-1.885l-5.081-1.353.779-2.924 8.411 2.24z" class="cls-2" transform="translate(-1207.613 -127.25)"/>
            <path id="Trazado_41978" d="M1307.252 137.432l-7.835 15.493-3.054-1.544 7.836-15.493zm.152-1.674l3.99-1.79-3.43-1.735-3.3 2.136z" class="cls-2" transform="translate(-1212.175 -127.828)"/>
            <path id="Trazado_41979" d="M1314.07 161.085l-5.491-4.208-2.728 1.846-2.933-2.248 15.382-10.082 3.367 2.58-5.719 17.489L1313 164.2zm1.1-3.187l2.426-7.078-6.2 4.181z" class="cls-2" transform="translate(-1213.52 -130.733)"/>
        </g>
    </g>
    <g id="Grupo_1203" transform="translate(37.648 58.575)">
        <path id="Trazado_41980" d="M1304.9 206.921l7.953-7.953a1.486 1.486 0 0 0 .047-2.057q-1.387-1.483-2.87-2.871a1.485 1.485 0 0 0-2.057.047l-7.953 7.953a1.483 1.483 0 0 0 .062 2.146q1.39 1.28 2.671 2.672a1.483 1.483 0 0 0 2.147.063z" class="cls-2" transform="translate(-1209.591 -183.97)"/>
        <path id="Trazado_41981" d="M1331.385 244.65H1320.1a1.482 1.482 0 0 0-1.473 1.567c.029.624.046 1.252.046 1.884s-.017 1.26-.046 1.884a1.482 1.482 0 0 0 1.473 1.567h11.284a1.476 1.476 0 0 0 1.48-1.411c.025-.677.04-1.357.04-2.041s-.015-1.363-.04-2.04a1.476 1.476 0 0 0-1.479-1.41z" class="cls-2" transform="translate(-1213.497 -194.436)"/>
        <path id="Trazado_41982" d="M1300.021 292.406l7.953 7.953a1.484 1.484 0 0 0 2.057.047q1.483-1.387 2.87-2.871a1.486 1.486 0 0 0-.047-2.057l-7.953-7.953a1.484 1.484 0 0 0-2.146.063q-1.279 1.391-2.671 2.672a1.483 1.483 0 0 0-.063 2.146z" class="cls-2" transform="translate(-1209.591 -203.147)"/>
        <path id="Trazado_41983" d="M1219.4 202.026l-7.953-7.953a1.484 1.484 0 0 0-2.057-.047q-1.483 1.385-2.871 2.869a1.485 1.485 0 0 0 .046 2.057l7.953 7.953a1.484 1.484 0 0 0 2.146-.063q1.28-1.39 2.672-2.671a1.483 1.483 0 0 0 .064-2.145z" class="cls-2" transform="translate(-1190.411 -183.967)"/>
        <path id="Trazado_41984" d="M1200.582 248.1c0-.632.017-1.26.047-1.884a1.483 1.483 0 0 0-1.474-1.567h-11.283a1.476 1.476 0 0 0-1.48 1.411q-.038 1.016-.04 2.04t.04 2.041a1.476 1.476 0 0 0 1.48 1.411h11.283a1.483 1.483 0 0 0 1.474-1.567c-.029-.624-.047-1.252-.047-1.885z" class="cls-2" transform="translate(-1186.353 -194.436)"/>
        <path id="Trazado_41985" d="M1214.521 287.541l-7.953 7.953a1.485 1.485 0 0 0-.046 2.057q1.387 1.483 2.871 2.87a1.486 1.486 0 0 0 2.057-.047l7.953-7.953a1.483 1.483 0 0 0-.063-2.146q-1.391-1.28-2.672-2.671a1.484 1.484 0 0 0-2.147-.063z" class="cls-2" transform="translate(-1190.411 -203.15)"/>
        <path id="Trazado_41986" d="M1261.959 182.126l-32.788 61a1.206 1.206 0 0 0 1.069 1.762h24.918a1.205 1.205 0 0 1 1.136 1.609l-10.3 40.682a1.206 1.206 0 0 0 2.184 1l32.286-60.522a1.206 1.206 0 0 0-1.048-1.8H1255.4a1.206 1.206 0 0 1-1.17-1.5l9.968-41.391a1.205 1.205 0 0 0-2.239-.84z" class="cls-2" transform="translate(-1195.112 -181.471)"/>
    </g>
</svg>
