<svg xmlns="http://www.w3.org/2000/svg" id="Grupo_1125" width="194.704" height="194.704" viewBox="0 0 194.704 194.704">
    <defs>
        <style>
            .cls-2{fill:#fff}
        </style>
    </defs>
    <circle id="Elipse_93" cx="97.352" cy="97.352" r="97.352" fill="#f47920"/>
    <g id="Grupo_1122" transform="translate(19.195 15.074)">
        <g id="Grupo_1121">
            <path id="Trazado_41811" d="M1504.756 500.98l3.033 1.229-4.033 9.951-16.087-6.52 3.987-9.836 3.033 1.229-2.7 6.664 3.424 1.388 2.469-6.09 2.987 1.211-2.468 6.09 3.608 1.462z" class="cls-2" transform="translate(-1487.669 -449.672)"/>
            <path id="Trazado_41812" d="M1504.509 474.361l14.143 10.068-1.51 2.121-12.963-.095 8.648 6.156-1.984 2.788-14.143-10.067 1.51-2.121 12.942.08-8.627-6.142z" class="cls-2" transform="translate(-1489.522 -445.271)"/>
            <path id="Trazado_41813" d="M1511.787 465.745l2.848-2.392 11.827 7.491-5.35-12.929 2.868-2.408 6.681 17.058-3.247 2.727z" class="cls-2" transform="translate(-1492.619 -441.402)"/>
            <path id="Trazado_41814" d="M1531.716 449.257l.044-3.933 3.341-1.9-.713 4.313zm1.009 1.222l8.583 15.085 2.973-1.692-8.581-15.085z" class="cls-2" transform="translate(-1496.708 -438.923)"/>
            <path id="Trazado_41815" d="M1546.947 453.414a9.013 9.013 0 1 1 11.317 5.866 8.927 8.927 0 0 1-11.317-5.866zm13.914-4.436a5.6 5.6 0 1 0-3.615 7.112 5.5 5.5 0 0 0 3.616-7.112z" class="cls-2" transform="translate(-1499.742 -438.557)"/>
            <path id="Trazado_41816" d="M1601.672 448.336c-.49 4.986-4.344 7.946-9.3 7.458a9.029 9.029 0 1 1 1.569-17.986 8.812 8.812 0 0 1 7.131 4.763l-3.077 1.392a5.311 5.311 0 0 0-4.4-2.849 5.522 5.522 0 0 0-6.211 5.145c-.316 3.209 1.742 5.853 5.345 6.207 2.715.266 4.571-.872 5.358-2.788l-5.232-.513.3-3.012 8.661.852z" class="cls-2" transform="translate(-1507.427 -437.761)"/>
            <path id="Trazado_41817" d="M1616.1 454.654l-2.429-.935-2.167 5.622-3.193-1.23 6.239-16.2 6.479 2.5a5.763 5.763 0 0 1 3.323 7.446 5.653 5.653 0 0 1-4.942 3.517l1.234 7.491-3.448-1.329zm-1.351-3.736l3.286 1.265a2.576 2.576 0 0 0 1.845-4.789l-3.286-1.266z" class="cls-2" transform="translate(-1512.426 -438.613)"/>
            <path id="Trazado_41818" d="M1636.021 469.987l-5.65-4-2.655 1.95-3.018-2.134 14.988-10.668 3.463 2.449-5.044 17.7-3.038-2.148zm.978-3.228l2.151-7.167-6.04 4.417z" class="cls-2" transform="translate(-1515.789 -441.327)"/>
            <path id="Trazado_41819" d="M1660.761 477.176l-3.16-3.461-10.4 9.5-2.307-2.527 10.4-9.5-3.145-3.443 2.418-2.208 8.612 9.431z" class="cls-2" transform="translate(-1519.933 -443.461)"/>
            <path id="Trazado_41820" d="M1669.7 485.8l-14.534 9.491-1.871-2.865 14.534-9.491z" class="cls-2" transform="translate(-1521.658 -447.03)"/>
            <path id="Trazado_41821" d="M1661.686 498.3l2.74 2a3.893 3.893 0 0 0-.835 4.72c.823 1.886 1.906 2.2 2.792 1.811 1.183-.516 1.17-1.783.821-4.443-.357-2.74-.366-5.55 2.656-6.869 3-1.309 5.819.436 7.009 3.163a6.6 6.6 0 0 1-1.088 7.24l-2.674-1.972a3.409 3.409 0 0 0 .717-3.938c-.575-1.318-1.594-1.794-2.5-1.4-.978.427-1.232 1.268-.908 4 .306 2.869.636 5.918-2.615 7.337-2.976 1.3-5.837-.293-7.314-3.68-1.423-3.254-.787-6.075 1.199-7.969z" class="cls-2" transform="translate(-1522.975 -449.521)"/>
        </g>
    </g>
    <g id="Grupo_1124" transform="translate(56.489 78.265)">
        <path id="Trazado_41822" d="M1625.068 547.666v-13.583a3.444 3.444 0 0 0-3.444-3.444h-20.57a3.444 3.444 0 0 0-3.444 3.444v36.758a2.281 2.281 0 0 0 2.281 2.281h1.915a15.327 15.327 0 0 1 30.653 0h9.4a2.28 2.28 0 0 0 2.28-2.281V563.4c0-4.541-6.413-13.631-19.071-15.734zm-7.935 1.2a.744.744 0 0 1-.744.745h-9.935a.745.745 0 0 1-.745-.745v-9.934a.745.745 0 0 1 .745-.745h9.935a.744.744 0 0 1 .744.745z" class="cls-2" transform="translate(-1547.524 -520.011)"/>
        <circle id="Elipse_94" cx="9.861" cy="9.861" r="9.861" class="cls-2" transform="translate(59.748 43.266)"/>
        <circle id="Elipse_95" cx="9.861" cy="9.861" r="9.861" class="cls-2" transform="translate(15.335 43.062)"/>
        <g id="Grupo_1123">
            <path id="Trazado_41823" d="M1583.847 517.267h-45.384a3.872 3.872 0 0 0-3.871 3.871v45.385a3.871 3.871 0 0 0 3.871 3.871h6.008c0-.068-.01-.135-.01-.2a15.327 15.327 0 0 1 30.653 0c0 .068-.01.135-.01.2h8.743a3.871 3.871 0 0 0 3.871-3.871v-45.385a3.871 3.871 0 0 0-3.871-3.871z" class="cls-2" transform="translate(-1534.592 -517.267)"/>
        </g>
        <path id="Rectángulo_706" d="M0 0H9.371V42.484H0z" class="cls-2" transform="translate(44.061 10.628)"/>
    </g>
</svg>
