<svg xmlns="http://www.w3.org/2000/svg" id="Grupo_1129" width="194.704" height="194.704" viewBox="0 0 194.704 194.704">
    <defs>
        <style>
            .cls-1{fill:#d3df4e}.cls-2{fill:#fff}
        </style>
    </defs>
    <circle id="Elipse_96" cx="97.352" cy="97.352" r="97.352" class="cls-1"/>
    <g id="Grupo_1126" transform="translate(49.331 66.754)">
        <path id="Trazado_41824" d="M967.833 509.484a22.888 22.888 0 0 0-28.9-2.845l-39.451 21.69.052.041a33.984 33.984 0 0 0-7.519 5.7 36.228 36.228 0 0 0 51.233 51.23 33.97 33.97 0 0 0 5.7-7.52l.042.052 21.689-39.451a22.888 22.888 0 0 0-2.846-28.897z" class="cls-2" transform="translate(-881.403 -502.784)"/>
        <circle id="Elipse_97" cx="18.488" cy="18.488" r="18.488" class="cls-1" transform="translate(16.73 39.424)"/>
    </g>
    <g id="Grupo_1128" transform="translate(62.633 14.809)">
        <g id="Grupo_1127">
            <path id="Trazado_41825" d="M913.279 458.692l-8.676-5.418 2.876 7.61-3.2 1.21-6.137-16.24 3.2-1.21 2.709 7.168 2.858-9.273 3.689-1.394-3.028 10.155 9.4 5.993z" class="cls-2" transform="translate(-898.14 -438.19)"/>
            <path id="Trazado_41826" d="M933.935 451.671l.448 3.244-10.639 1.47-2.377-17.2 10.517-1.454.448 3.244-7.126.985.506 3.661 6.511-.9.442 3.194-6.511.9.532 3.858z" class="cls-2" transform="translate(-902.907 -437.49)"/>
            <path id="Trazado_41827" d="M953.606 441.586l-4.676-.328-.986 14.053-3.414-.239.985-14.053-4.651-.326.229-3.266 12.742.893z" class="cls-2" transform="translate(-906.907 -437.427)"/>
            <path id="Trazado_41828" d="M959.489 448.039a9.013 9.013 0 1 1 5.782 11.359 8.929 8.929 0 0 1-5.782-11.359zm13.895 4.5a5.6 5.6 0 1 0-7.081 3.675 5.5 5.5 0 0 0 7.08-3.675z" class="cls-2" transform="translate(-910.636 -438.319)"/>
        </g>
    </g>
</svg>
