<svg xmlns="http://www.w3.org/2000/svg" id="Grupo_1135" width="194.704" height="194.704" viewBox="0 0 194.704 194.704">
    <defs>
        <style>
            .cls-2{fill:#fff}
        </style>
    </defs>
    <circle id="Elipse_98" cx="97.352" cy="97.352" r="97.352" fill="#fdb71a"/>
    <path id="Trazado_41829" d="M655.81 536.27v-43.431l-37.61-21.716-37.613 21.716v43.431l32.937 19.015v8.315l-13.134 13.134a1.836 1.836 0 0 0 0 2.6l4.016 4.016a1.836 1.836 0 0 0 2.6 0l11.2-11.2 11.2 11.2a1.836 1.836 0 0 0 2.6 0l4.016-4.016a1.836 1.836 0 0 0 0-2.6L622.873 563.6v-8.317zm-37.61 3.471l-21.811-12.593v-25.186l21.811-12.594 21.812 12.593v25.186z" class="cls-2" transform="translate(-520.845 -429.533)"/>
    <g id="Grupo_1131" transform="translate(41.01 16.125)">
        <g id="Grupo_1130">
            <path id="Trazado_41830" d="M573.774 470.838l2.108 2.5-7.682 6.469-11.18-13.278 2.617-2.2 9.073 10.771z" class="cls-2" transform="translate(-557.02 -444.264)"/>
            <path id="Trazado_41831" d="M575.118 453.21l9.042 14.822-2.922 1.783-9.038-14.822z" class="cls-2" transform="translate(-560.134 -441.982)"/>
            <path id="Trazado_41832" d="M599.674 455.093a5.1 5.1 0 0 1-3.2 6.657l-6.857 2.683-6.325-16.163 6.373-2.494a4.961 4.961 0 0 1 6.7 2.624 4.3 4.3 0 0 1-.259 3.829 4.4 4.4 0 0 1 3.568 2.864zM587.644 450l1.391 3.556 3.186-1.246a1.91 1.91 0 0 0-1.391-3.556zm8.785 6.121a1.961 1.961 0 0 0-2.611-1.162l-3.671 1.437 1.49 3.81 3.672-1.437a1.967 1.967 0 0 0 1.12-2.646z" class="cls-2" transform="translate(-562.411 -440.37)"/>
            <path id="Trazado_41833" d="M613.838 451.364l-2.58.351.813 5.97-3.391.462-2.343-17.2 6.88-.938a5.763 5.763 0 0 1 6.5 4.921 5.655 5.655 0 0 1-2.634 5.464l4.693 5.968-3.662.5zm-2.984-2.622l3.488-.474a2.576 2.576 0 0 0-.692-5.087l-3.489.475z" class="cls-2" transform="translate(-567.141 -439.262)"/>
            <path id="Trazado_41834" d="M639.7 454.028l-.279 3.261-10.7-.914 1.477-17.292 10.573.9-.278 3.261-7.164-.612-.314 3.681 6.546.559-.274 3.211-6.547-.559-.331 3.879z" class="cls-2" transform="translate(-571.734 -439.083)"/>
            <path id="Trazado_41835" d="M671.508 459.278a8.361 8.361 0 0 1-11.236 4.355l-6.254-2.9 7.309-15.747 6.254 2.9a8.361 8.361 0 0 1 3.927 11.392zm-2.969-1.378c1.346-2.9.386-5.781-2.336-7.044l-3.15-1.462-4.553 9.806 3.149 1.462c2.724 1.265 5.543.138 6.89-2.762z" class="cls-2" transform="translate(-576.925 -440.294)"/>
            <path id="Trazado_41836" d="M684.487 475.715l-2.046 2.555-8.381-6.711 10.849-13.55 8.284 6.634-2.046 2.554-5.612-4.495-2.31 2.884 5.13 4.107-2.015 2.516-5.13-4.107-2.433 3.038z" class="cls-2" transform="translate(-581.038 -442.967)"/>
        </g>
    </g>
    <g id="Grupo_1134" transform="translate(27.598 132.572)">
        <g id="Grupo_1133">
            <g id="Grupo_1132">
                <path id="Trazado_41837" d="M556.789 599.034a5.813 5.813 0 0 1-8.21-1.305l-1.812-2.453-4.588 3.389-2.033-2.753 13.963-10.312 3.846 5.207a5.812 5.812 0 0 1-1.166 8.227zm-2.019-2.734a2.5 2.5 0 0 0 .612-3.6l-1.812-2.454-4.23 3.124 1.813 2.454a2.517 2.517 0 0 0 3.617.476z" class="cls-2" transform="translate(-540.145 -585.596)"/>
                <path id="Trazado_41838" d="M562.211 616.677l-5.18-4.588-2.852 1.649-2.767-2.45 16.06-8.968 3.175 2.813-6.947 17.041-2.785-2.467zm1.323-3.1l2.921-6.889-6.486 3.732z" class="cls-2" transform="translate(-542.457 -589.028)"/>
                <path id="Trazado_41839" d="M581 624.567l-2.3-1.215-2.814 5.327-3.026-1.6 8.107-15.349 6.14 3.243a5.763 5.763 0 0 1 2.422 7.786 5.655 5.655 0 0 1-5.323 2.91l.341 7.584-3.267-1.726zm-.9-3.869l3.114 1.645a2.576 2.576 0 0 0 2.4-4.539l-3.114-1.644z" class="cls-2" transform="translate(-546.858 -590.96)"/>
                <path id="Trazado_41840" d="M604.783 636.76l-6.713-1.672-1.765 2.779-3.585-.893 10.089-15.374 4.114 1.025 1.725 18.317-3.609-.9zm-.261-3.362l-.6-7.456-4.023 6.306z" class="cls-2" transform="translate(-550.934 -592.985)"/>
                <path id="Trazado_41841" d="M632.473 637.081a5.1 5.1 0 0 1-5.488 4.948l-7.365-.118.28-17.361 6.845.11a4.963 4.963 0 0 1 5.2 4.971 4.3 4.3 0 0 1-1.693 3.445 4.4 4.4 0 0 1 2.221 4.005zm-3.395-.277a1.961 1.961 0 0 0-1.976-2.067l-3.943-.064-.066 4.092 3.943.064a1.967 1.967 0 0 0 2.043-2.029zm-5.808-9l-.061 3.819 3.422.056a1.911 1.911 0 0 0 .062-3.82z" class="cls-2" transform="translate(-556.454 -593.59)"/>
                <path id="Trazado_41842" d="M652.067 635.241l.671 3.2-10.513 2.2-3.557-17 10.392-2.175.67 3.2-7.041 1.474.757 3.618 6.434-1.347.661 3.157-6.435 1.346.8 3.812z" class="cls-2" transform="translate(-560.363 -592.959)"/>
                <path id="Trazado_41843" d="M666.822 613.574l7.3 15.747-2.363 1.1-11.212-6.5 4.464 9.629-3.105 1.439-7.3-15.748 2.362-1.1 11.2 6.478-4.453-9.606z" class="cls-2" transform="translate(-563.634 -591.337)"/>
                <path id="Trazado_41844" d="M678.847 616.984a9.016 9.016 0 1 1 12.708 1.036 8.93 8.93 0 0 1-12.708-1.036zm11.122-9.472a5.606 5.606 0 1 0-.586 7.958 5.5 5.5 0 0 0 .587-7.959z" class="cls-2" transform="translate(-568.158 -588.98)"/>
                <path id="Trazado_41845" d="M701.356 602.611l.308-3.375a3.892 3.892 0 0 0 4.479-1.707c1.2-1.675.907-2.765.12-3.326-1.049-.75-2.13-.089-4.234 1.578-2.167 1.713-4.573 3.162-7.257 1.247-2.664-1.9-2.612-5.217-.884-7.639a6.6 6.6 0 0 1 6.77-2.783l-.32 3.306a3.413 3.413 0 0 0-3.747 1.408c-.836 1.171-.72 2.289.087 2.865.868.62 1.721.406 3.894-1.273 2.3-1.735 4.752-3.583 7.638-1.524 2.643 1.888 2.745 5.16.6 8.166-2.061 2.886-4.81 3.789-7.454 3.057z" class="cls-2" transform="translate(-571.444 -585.779)"/>
            </g>
        </g>
    </g>
</svg>
