<svg xmlns="http://www.w3.org/2000/svg" id="Grupo_1120" width="194.704" height="194.704" viewBox="0 0 194.704 194.704">
    <defs>
        <style>
            .cls-3{fill:#fff}
        </style>
    </defs>
    <circle id="Elipse_91" cx="97.352" cy="97.352" r="97.352" fill="#f47920"/>
    <g id="Grupo_1114">
        <circle id="Elipse_92" cx="97.352" cy="97.352" r="97.352" fill="#ffd600"/>
    </g>
    <g id="Grupo_1116" transform="translate(41.01 14.935)">
        <g id="Grupo_1115">
            <path id="Trazado_41795" d="M573.774 158.319l2.108 2.5-7.682 6.469-11.18-13.277 2.617-2.2 9.073 10.773z" class="cls-3" transform="translate(-557.02 -131.744)"/>
            <path id="Trazado_41796" d="M575.118 140.691l9.042 14.822-2.922 1.783-9.038-14.823z" class="cls-3" transform="translate(-560.134 -129.462)"/>
            <path id="Trazado_41797" d="M599.674 142.573a5.1 5.1 0 0 1-3.2 6.657l-6.857 2.684-6.325-16.164 6.373-2.494a4.961 4.961 0 0 1 6.7 2.625 4.3 4.3 0 0 1-.259 3.828 4.4 4.4 0 0 1 3.568 2.864zm-12.03-5.091l1.391 3.556 3.186-1.247a1.91 1.91 0 0 0-1.391-3.556zm8.785 6.121a1.961 1.961 0 0 0-2.611-1.161l-3.671 1.437 1.49 3.809 3.672-1.436a1.968 1.968 0 0 0 1.12-2.652z" class="cls-3" transform="translate(-562.411 -127.85)"/>
            <path id="Trazado_41798" d="M613.838 138.845l-2.58.351.813 5.97-3.391.462-2.343-17.2 6.88-.937a5.762 5.762 0 0 1 6.5 4.92 5.656 5.656 0 0 1-2.634 5.465l4.693 5.967-3.662.5zm-2.984-2.622l3.488-.475a2.576 2.576 0 0 0-.692-5.086l-3.489.475z" class="cls-3" transform="translate(-567.141 -126.743)"/>
            <path id="Trazado_41799" d="M639.7 141.508l-.279 3.261-10.7-.914 1.477-17.292 10.573.9-.278 3.261-7.164-.612-.314 3.681 6.546.559-.274 3.212-6.547-.56-.331 3.879z" class="cls-3" transform="translate(-571.734 -126.563)"/>
            <path id="Trazado_41800" d="M671.508 146.759a8.36 8.36 0 0 1-11.236 4.355l-6.254-2.9 7.309-15.748 6.254 2.9a8.361 8.361 0 0 1 3.927 11.393zm-2.969-1.378c1.346-2.9.386-5.782-2.336-7.045l-3.15-1.462-4.552 9.808 3.149 1.462c2.723 1.264 5.542.138 6.889-2.763z" class="cls-3" transform="translate(-576.925 -127.774)"/>
            <path id="Trazado_41801" d="M684.487 163.195l-2.046 2.555-8.381-6.711 10.849-13.549 8.284 6.634-2.046 2.554-5.612-4.495-2.31 2.883 5.13 4.107-2.015 2.516-5.13-4.107-2.433 3.039z" class="cls-3" transform="translate(-581.038 -130.447)"/>
        </g>
    </g>
    <g id="Grupo_1119" transform="translate(29.17 136.376)">
        <g id="Grupo_1118">
            <g id="Grupo_1117">
                <path id="Trazado_41802" d="M552.05 294.66l-4.479-5.272-3.055 1.23-2.392-2.815 17.16-6.611 2.746 3.232-9.276 15.888-2.409-2.834zm1.748-2.884l3.862-6.406-6.945 2.779z" class="cls-3" transform="translate(-542.123 -279.736)"/>
                <path id="Trazado_41803" d="M575.164 316.111l-2.816-1.9 6.3-9.332-8.558 3.948-.329-.222.445-9.394-6.284 9.312-2.837-1.915 9.712-14.389 2.919 1.97-.461 9.593 8.7-4.03 2.919 1.97z" class="cls-3" transform="translate(-546.014 -281.999)"/>
                <path id="Trazado_41804" d="M589.845 314.091a9.015 9.015 0 1 1 5.975 11.263 8.928 8.928 0 0 1-5.975-11.263zm13.972 4.264a5.605 5.605 0 1 0-7.019 3.8 5.5 5.5 0 0 0 7.018-3.8z" class="cls-3" transform="translate(-551.832 -285.172)"/>
                <path id="Trazado_41805" d="M630.7 312.256l-.433 17.352-2.6-.064-7.172-10.8-.265 10.61-3.421-.085.433-17.353 2.6.065 7.172 10.77.264-10.584z" class="cls-3" transform="translate(-557.448 -286.042)"/>
                <path id="Trazado_41806" d="M641.85 310.847L644.516 328l-3.383.525-2.666-17.156z" class="cls-3" transform="translate(-561.894 -285.822)"/>
                <path id="Trazado_41807" d="M654.748 304.263l-2.9 1.01.757-3.86 3.631-1.263zm7.416 14.143l-6.534 2.274.044 3.293-3.489 1.214.033-18.389 4-1.394 11.466 14.388-3.512 1.222zm-2.058-2.671l-4.579-5.915.083 7.48z" class="cls-3" transform="translate(-564.639 -283.626)"/>
                <path id="Trazado_41808" d="M670.229 309.7a8.8 8.8 0 0 1 2.521-12.515 8.648 8.648 0 0 1 8.482-.725l-1.511 3.059a5.01 5.01 0 0 0-5.132.433 5.692 5.692 0 0 0 6.3 9.479 5.015 5.015 0 0 0 2.4-4.543l3.4-.209a8.588 8.588 0 0 1-3.952 7.54 8.815 8.815 0 0 1-12.508-2.519z" class="cls-3" transform="translate(-568.085 -282.707)"/>
                <path id="Trazado_41809" d="M690.093 295.244a9.015 9.015 0 1 1 12.715-.935 8.93 8.93 0 0 1-12.715.935zm9.529-11.072a5.606 5.606 0 1 0 .648 7.953 5.5 5.5 0 0 0-.648-7.953z" class="cls-3" transform="translate(-571.836 -279.36)"/>
            </g>
        </g>
    </g>
    <path id="Trazado_41810" d="M668.559 213.959l10.782-10.782a2.213 2.213 0 0 0 0-3.131l-3.4-3.4a2.213 2.213 0 0 0-3.131 0l-12.7 12.7h-10.493l-18.791-32.547h-42.919l-21.458 37.168 21.458 37.168h16.838v13.885a2.214 2.214 0 0 0 2.213 2.214h4.815a2.214 2.214 0 0 0 2.214-2.214v-13.892h16.838l18.791-32.547h10.494l12.7 12.7a2.213 2.213 0 0 0 3.131 0l3.4-3.4a2.213 2.213 0 0 0 0-3.131zm-46.769 21.517h-24.846l-12.423-21.517 12.423-21.517h24.845l12.423 21.517z" class="cls-3" transform="translate(-517.944 -121.935)"/>
</svg>
