<svg xmlns="http://www.w3.org/2000/svg" id="Grupo_1217" width="194.704" height="194.704" viewBox="0 0 194.704 194.704">
    <defs>
        <style>
            .cls-2{fill:#fff}
        </style>
    </defs>
    <circle id="Elipse_108" cx="97.352" cy="97.352" r="97.352" fill="#eb86b6"/>
    <g id="Grupo_1211" transform="translate(56.31 49.903)">
        <path id="Trazado_42002" d="M1253.247 520.765l34.37-18.445a1.22 1.22 0 0 0 0-2.15l-34.37-18.443a1.222 1.222 0 0 0-1.154 0l-34.371 18.444a1.22 1.22 0 0 0 0 2.15l34.371 18.444a1.222 1.222 0 0 0 1.154 0z" class="cls-2" transform="translate(-1211.32 -481.583)"/>
        <path id="Trazado_42003" d="M1267.948 535.969v42.693a1.22 1.22 0 0 0 1.8 1.075l33.2-17.818a4.05 4.05 0 0 0 2.135-3.569v-41a1.22 1.22 0 0 0-1.8-1.075l-34.7 18.619a1.22 1.22 0 0 0-.635 1.075z" class="cls-2" transform="translate(-1221.759 -488.672)"/>
        <path id="Trazado_42004" d="M1246.326 535.41l-34.7-18.617a1.22 1.22 0 0 0-1.8 1.075v41a4.05 4.05 0 0 0 2.135 3.569l33.2 17.818a1.22 1.22 0 0 0 1.8-1.075v-42.694a1.22 1.22 0 0 0-.635-1.076z" class="cls-2" transform="translate(-1209.833 -488.778)"/>
    </g>
    <g id="Grupo_1213" transform="translate(41.01 14.935)">
        <g id="Grupo_1212">
            <path id="Trazado_42005" d="M1207.337 469.341l2.108 2.5-7.682 6.469-11.18-13.278 2.618-2.2 9.072 10.773z" class="cls-2" transform="translate(-1190.583 -442.767)"/>
            <path id="Trazado_42006" d="M1208.682 451.713l9.041 14.822-2.922 1.783-9.042-14.822z" class="cls-2" transform="translate(-1193.697 -440.485)"/>
            <path id="Trazado_42007" d="M1233.237 453.6a5.1 5.1 0 0 1-3.2 6.657l-6.857 2.683-6.325-16.164 6.373-2.493a4.962 4.962 0 0 1 6.7 2.624 4.3 4.3 0 0 1-.259 3.828 4.4 4.4 0 0 1 3.568 2.865zm-12.03-5.091l1.391 3.556 3.187-1.246a1.91 1.91 0 0 0-1.392-3.556zm8.786 6.121a1.962 1.962 0 0 0-2.612-1.162l-3.672 1.437 1.491 3.809 3.672-1.436a1.968 1.968 0 0 0 1.121-2.652z" class="cls-2" transform="translate(-1195.974 -438.873)"/>
            <path id="Trazado_42008" d="M1247.4 449.867l-2.579.351.812 5.97-3.39.462-2.344-17.2 6.88-.938a5.762 5.762 0 0 1 6.5 4.921 5.654 5.654 0 0 1-2.634 5.464l4.693 5.968-3.661.5zm-2.984-2.622l3.489-.474a2.576 2.576 0 0 0-.693-5.087l-3.489.475z" class="cls-2" transform="translate(-1200.704 -437.765)"/>
            <path id="Trazado_42009" d="M1273.26 452.531l-.279 3.261-10.7-.914 1.478-17.292 10.572.9-.278 3.261-7.164-.612-.314 3.681 6.546.56-.274 3.211-6.546-.559-.332 3.879z" class="cls-2" transform="translate(-1205.297 -437.586)"/>
            <path id="Trazado_42010" d="M1305.071 457.781a8.361 8.361 0 0 1-11.236 4.355l-6.254-2.9 7.309-15.747 6.254 2.9a8.361 8.361 0 0 1 3.927 11.392zm-2.971-1.381c1.347-2.9.386-5.781-2.336-7.044l-3.15-1.462-4.552 9.808 3.149 1.462c2.725 1.266 5.544.142 6.889-2.764z" class="cls-2" transform="translate(-1210.488 -438.797)"/>
            <path id="Trazado_42011" d="M1318.05 474.217l-2.05 2.555-8.381-6.71 10.849-13.55 8.284 6.634-2.046 2.554-5.612-4.495-2.311 2.884 5.13 4.107-2.015 2.516-5.13-4.107-2.433 3.039z" class="cls-2" transform="translate(-1214.601 -441.47)"/>
        </g>
    </g>
    <g id="Grupo_1216" transform="translate(32.564 138.915)">
        <g id="Grupo_1215">
            <g id="Grupo_1214">
                <path id="Trazado_42012" d="M1190.328 610.436l-4.828-4.957-2.966 1.435-2.578-2.647 16.676-7.762 2.96 3.038-8.18 16.485-2.6-2.665zm1.548-3l3.42-6.656-6.743 3.244z" class="cls-2" transform="translate(-1179.956 -594.178)"/>
                <path id="Trazado_42013" d="M1210.806 624.436l-1.778 2.748-9.848-6.367 1.48-2.291 12.225-5.619-5.914-3.823 1.777-2.749 9.579 6.192-1.468 2.27-12.238 5.641z" class="cls-2" transform="translate(-1183.901 -596.195)"/>
                <path id="Trazado_42014" d="M1220.47 625.766l4-10.972 3.192 1.163-3.9 10.716c-.578 1.585-.172 3.078 2.018 3.876s3.462-.084 4.039-1.668l3.9-10.717 3.215 1.172-4 10.973c-1.282 3.518-4.719 4.693-8.306 3.386-3.565-1.295-5.439-4.41-4.158-7.929zm11.78-9.8l3.748-2.249-3.611-1.316-3.026 2.512z" class="cls-2" transform="translate(-1188.187 -597.44)"/>
                <path id="Trazado_42015" d="M1242.622 630.652a8.8 8.8 0 0 1 9.813-8.162 8.646 8.646 0 0 1 7.058 4.756l-3.094 1.435a5.011 5.011 0 0 0-4.267-2.883 5.691 5.691 0 0 0-1.041 11.334 5.013 5.013 0 0 0 4.719-2.031l2.782 1.973a8.587 8.587 0 0 1-7.807 3.391 8.813 8.813 0 0 1-8.163-9.813z" class="cls-2" transform="translate(-1192.807 -599.502)"/>
                <path id="Trazado_42016" d="M1279.062 635.523l-6.827 1.11-.528 3.251-3.646.592 3.211-18.106 4.185-.68 8.8 16.152-3.67.6zm-1.565-2.986l-3.488-6.617-1.209 7.38z" class="cls-2" transform="translate(-1198.036 -599.347)"/>
                <path id="Trazado_42017" d="M1296.581 626.866l-2.4 1.021 2.364 5.543-3.148 1.342-6.807-15.968 6.387-2.723a5.762 5.762 0 0 1 7.571 3.026 5.655 5.655 0 0 1-1.1 5.966l6.1 4.515-3.4 1.449zm-3.572-1.739l3.239-1.381a2.576 2.576 0 0 0-2.013-4.722l-3.235 1.381z" class="cls-2" transform="translate(-1201.839 -598.1)"/>
                <path id="Trazado_42018" d="M1320.763 615.306l1.9 2.666-8.744 6.233-10.076-14.134 8.643-6.161 1.9 2.666-5.855 4.174 2.144 3.009 5.351-3.815 1.871 2.625-5.35 3.815 2.26 3.17z" class="cls-2" transform="translate(-1205.379 -595.698)"/>
                <path id="Trazado_42019" d="M1326.794 609.877l.719-3.312a3.893 3.893 0 0 0 4.654-1.146c1.393-1.516 1.24-2.632.527-3.287-.949-.872-2.1-.349-4.4 1.048-2.361 1.434-4.927 2.579-7.356.348-2.411-2.214-1.955-5.5.058-7.69a6.6 6.6 0 0 1 7.061-1.932l-.722 3.242a3.413 3.413 0 0 0-3.891.938c-.973 1.059-1 2.183-.265 2.854.785.722 1.658.614 4.021-.785 2.5-1.44 5.155-2.975 7.768-.576 2.392 2.2 2.092 5.457-.406 8.178-2.394 2.611-5.231 3.17-7.768 2.12z" class="cls-2" transform="translate(-1208.552 -593.577)"/>
            </g>
        </g>
    </g>
</svg>
