<svg xmlns="http://www.w3.org/2000/svg" id="Grupo_1221" width="194.704" height="194.704" viewBox="0 0 194.704 194.704">
    <defs>
        <style>
            .cls-1{fill:#85c598}.cls-2{fill:#fff}
        </style>
    </defs>
    <circle id="Elipse_109" cx="97.352" cy="97.352" r="97.352" class="cls-1"/>
    <g id="Grupo_1219" transform="translate(39.048 14.484)">
        <g id="Grupo_1218">
            <path id="Trazado_42020" d="M250.909 456.182l11.223 13.243-1.987 1.683-12.538-3.288 6.862 8.1-2.611 2.212-11.222-13.243 1.986-1.683 12.522 3.268-6.846-8.078z" class="cls-2" transform="translate(-240.636 -440.951)"/>
            <path id="Trazado_42021" d="M278.221 458.321l-6.246 2.977.4 3.27-3.336 1.59-1.985-18.287 3.828-1.825 12.978 13.046-3.358 1.6zm-2.34-2.429l-5.2-5.378.9 7.427z" class="cls-2" transform="translate(-246.058 -438.871)"/>
            <path id="Trazado_42022" d="M295.953 441.193l-4.566 1.056 3.176 13.721-3.334.772-3.175-13.721-4.542 1.051-.738-3.189L295.216 438z" class="cls-2" transform="translate(-249.283 -437.22)"/>
            <path id="Trazado_42023" d="M306.029 448.7l.188-11.681 3.4.055-.184 11.408c-.028 1.687.845 2.965 3.176 3s3.245-1.214 3.272-2.9l.184-11.408 3.422.055-.188 11.681c-.06 3.745-2.924 5.982-6.744 5.92-3.796-.058-6.587-2.386-6.526-6.13z" class="cls-2" transform="translate(-254.055 -437.018)"/>
            <path id="Trazado_42024" d="M334.074 450.925l-2.523-.638-1.477 5.841-3.317-.839 4.253-16.826 6.73 1.7a5.759 5.759 0 0 1 4.191 6.991 5.652 5.652 0 0 1-4.484 4.084l2.121 7.287-3.581-.905zm-1.788-3.547l3.413.863a2.575 2.575 0 0 0 1.258-4.975l-3.414-.863z" class="cls-2" transform="translate(-258.309 -437.315)"/>
            <path id="Trazado_42025" d="M355.516 463.5l-6.083-3.3-2.4 2.252-3.249-1.76 13.611-12.37 3.729 2.02-2.9 18.17-3.271-1.772zm.587-3.321l1.284-7.37-5.471 5.1z" class="cls-2" transform="translate(-261.802 -439.339)"/>
            <path id="Trazado_42026" d="M373.428 476.429l-2.159 2.461-7.549-6.626 11.451-13.048 2.573 2.258-9.293 10.587z" class="cls-2" transform="translate(-265.894 -441.573)"/>
        </g>
    </g>
    <g id="Grupo_1220" transform="translate(56 61.066)">
        <path id="Trazado_42027" d="M281.961 525.749c-5.621 1.461-13.758 5.69-17.928 17.813a37.439 37.439 0 0 0 2.776 30.674l13.575 24.677a13.328 13.328 0 0 0 12.4 6.072c-.123-.248-10.883-23.912-13.629-29.949-8.219-18.066-5.032-38.198 2.806-49.287z" class="cls-2" transform="translate(-261.966 -501.809)"/>
        <path id="Trazado_42028" d="M345.792 543.366c-6.761-19.658-23.945-18.561-23.945-18.561a22 22 0 0 0-7.221 1.206 20.85 20.85 0 0 0-6.086 3.325c-.033.028-.067.052-.1.079a3.1 3.1 0 0 1-3.856 0c-.033-.026-.068-.051-.1-.079a20.856 20.856 0 0 0-6.086-3.325 22.02 22.02 0 0 0-7.221-1.206s-.173-.01-.491-.01a22.574 22.574 0 0 0-5.529.758c-7.838 11.089-11.025 31.221-2.808 49.286 2.746 6.037 13.506 29.7 13.629 29.949.064 0 .129-.013.193-.019.135-.011.27-.023.405-.038.107-.013.214-.028.321-.043s.216-.029.324-.047.229-.041.343-.062.2-.038.307-.06.229-.05.343-.077.207-.051.31-.078.223-.06.334-.091.215-.064.321-.1.212-.068.317-.1.228-.082.341-.124c.1-.037.2-.072.292-.11.129-.051.257-.106.384-.162.081-.036.162-.068.242-.106.207-.094.414-.195.618-.3a11.079 11.079 0 0 1 10.273 0c6.3 3.287 14.288 1.2 17.8-4.553l13.572-24.677a37.406 37.406 0 0 0 2.774-30.675z" class="cls-2" transform="translate(-265.159 -501.613)"/>
        <ellipse id="Elipse_110" cx="6.794" cy="2.13" class="cls-1" rx="6.794" ry="2.13" transform="translate(34.558 26.615)"/>
        <path id="Trazado_42029" d="M330.066 505.911a20.292 20.292 0 0 1 2.9.3.54.54 0 0 1 .4.764c-1.252 2.628-6.556 12.362-15.385 9.658v-2.175c6.141.347 10.244-5.3 12.085-8.547z" class="cls-2" transform="translate(-273.461 -497.738)"/>
        <path id="Trazado_42030" d="M315.424 524.519v-26.963a1.928 1.928 0 1 0-3.856 0v26.963a3.1 3.1 0 0 0 3.856 0z" class="cls-2" transform="translate(-272.145 -495.628)"/>
    </g>
</svg>
