<svg xmlns="http://www.w3.org/2000/svg" id="Grupo_1143" width="194.704" height="194.704" viewBox="0 0 194.704 194.704">
    <defs>
        <style>
            .cls-2{fill:#fff}
        </style>
    </defs>
    <circle id="Elipse_99" cx="97.352" cy="97.352" r="97.352" fill="#e1251b"/>
    <g id="Grupo_1137" transform="translate(28.211 16.056)">
        <g id="Grupo_1136">
            <path id="Trazado_41846" d="M553.044 786.661a5.814 5.814 0 0 1 1.077 8.244l-1.839 2.434 4.553 3.439-2.063 2.732-13.855-10.467 3.9-5.166a5.815 5.815 0 0 1 8.227-1.216zm-2.049 2.711a2.5 2.5 0 0 0-3.623.435l-1.839 2.434 4.2 3.171 1.839-2.434a2.519 2.519 0 0 0-.577-3.606z" class="cls-2" transform="translate(-540.916 -755.583)"/>
            <path id="Trazado_41847" d="M567.964 780.067l-2.005 1.661 3.843 4.641-2.636 2.182-11.07-13.371 5.348-4.427a5.762 5.762 0 0 1 8.12.746 5.653 5.653 0 0 1 .648 6.031l7.136 2.593-2.846 2.356zm-3.919-.65l2.713-2.246a2.576 2.576 0 0 0-3.274-3.954l-2.712 2.247z" class="cls-2" transform="translate(-544.031 -752.288)"/>
            <path id="Trazado_41848" d="M579.251 768.582a9.013 9.013 0 1 1 11.918 4.518 8.928 8.928 0 0 1-11.918-4.518zm13.307-6.015a5.6 5.6 0 1 0-2.767 7.482 5.5 5.5 0 0 0 2.767-7.482z" class="cls-2" transform="translate(-548.613 -749.5)"/>
            <path id="Trazado_41849" d="M621.09 756.562a8.359 8.359 0 0 1-7.109 9.727l-6.83.931-2.343-17.2 6.83-.93a8.359 8.359 0 0 1 9.452 7.472zm-3.244.441c-.432-3.169-2.793-5.075-5.766-4.67l-3.44.469 1.459 10.713 3.44-.469c2.974-.406 4.74-2.873 4.308-6.046z" class="cls-2" transform="translate(-554.027 -748.1)"/>
            <path id="Trazado_41850" d="M630.606 759.455l1.434-11.59 3.371.418-1.4 11.319c-.207 1.672.524 3.038 2.837 3.325s3.354-.86 3.561-2.534l1.4-11.319 3.4.42-1.434 11.59c-.459 3.716-3.545 5.633-7.333 5.165-3.771-.467-6.295-3.078-5.836-6.794z" class="cls-2" transform="translate(-559.31 -747.865)"/>
            <path id="Trazado_41851" d="M653.341 760.551a8.8 8.8 0 0 1 11.778-4.926 8.645 8.645 0 0 1 5.354 6.618l-3.379.464a5.011 5.011 0 0 0-3.236-4.008 5.692 5.692 0 0 0-4.32 10.533 5.013 5.013 0 0 0 5.107-.559l2.082 2.7a8.585 8.585 0 0 1-8.459.953 8.814 8.814 0 0 1-4.927-11.775z" class="cls-2" transform="translate(-563.838 -749.307)"/>
            <path id="Trazado_41852" d="M689.151 773.411l-3.786-2.764-8.308 11.38-2.765-2.018 8.309-11.38-3.767-2.749 1.931-2.646 10.318 7.532z" class="cls-2" transform="translate(-568.286 -751.019)"/>
            <path id="Trazado_41853" d="M690.669 782.8a9.014 9.014 0 1 1-1.106 12.7 8.929 8.929 0 0 1 1.106-12.7zm9.408 11.172a5.6 5.6 0 1 0-7.953-.629 5.5 5.5 0 0 0 7.953.634z" class="cls-2" transform="translate(-570.981 -754.591)"/>
        </g>
    </g>
    <g id="Grupo_1140" transform="translate(32.732 138.25)">
        <g id="Grupo_1139">
            <g id="Grupo_1138">
                <path id="Trazado_41854" d="M558.543 925.887l-2.388-2.415 8.005-7.912-9.16 2.19-.279-.282 2.28-9.12-7.988 7.895-2.4-2.434 12.344-12.2 2.475 2.5-2.334 9.313 9.322-2.242 2.475 2.5z" class="cls-2" transform="translate(-546.604 -901.609)"/>
                <path id="Trazado_41855" d="M580.028 936.267l-1.689 2.8-9.2-5.54 8.956-14.874 9.094 5.477-1.689 2.8-6.162-3.711-1.907 3.166 5.631 3.39-1.664 2.763-5.631-3.391-2.008 3.336z" class="cls-2" transform="translate(-551.228 -905.108)"/>
                <path id="Trazado_41856" d="M596.134 946.218l-1.386-6.435-5 4.278-3.664-1.238 7.874-6.736-2.064-9.621 3.665 1.238 1.271 5.925 4.6-3.942 3.665 1.238-7.465 6.377 2.2 10.162z" class="cls-2" transform="translate(-554.705 -906.71)"/>
                <path id="Trazado_41857" d="M615.737 932.763l-2.674 17.148-3.38-.526 2.674-17.149z" class="cls-2" transform="translate(-559.548 -907.894)"/>
                <path id="Trazado_41858" d="M620.744 942.344a8.8 8.8 0 0 1 8.723-9.323 8.646 8.646 0 0 1 7.6 3.841l-2.892 1.809a5.014 5.014 0 0 0-4.595-2.33 5.693 5.693 0 0 0 .378 11.378 5.011 5.011 0 0 0 4.43-2.6l3.007 1.613a8.59 8.59 0 0 1-7.325 4.339 8.817 8.817 0 0 1-9.326-8.727z" class="cls-2" transform="translate(-561.817 -908.054)"/>
                <path id="Trazado_41859" d="M657.88 942.68l-6.632 1.969-.109 3.292-3.542 1.051.883-18.367 4.065-1.208 10.788 14.9-3.565 1.059zm-1.933-2.763l-4.3-6.121-.263 7.476z" class="cls-2" transform="translate(-567.329 -907.315)"/>
                <path id="Trazado_41860" d="M674.224 917.6l8.922 14.89-2.233 1.338-11.837-5.281 5.455 9.1-2.935 1.759-8.922-14.89 2.234-1.338 11.824 5.259-5.443-9.083z" class="cls-2" transform="translate(-570.423 -904.891)"/>
                <path id="Trazado_41861" d="M686.627 919.793a9.015 9.015 0 1 1 12.744-.3 8.927 8.927 0 0 1-12.744.3zm10.064-10.586a5.605 5.605 0 1 0 .254 7.974 5.5 5.5 0 0 0-.254-7.973z" class="cls-2" transform="translate(-574.754 -902.143)"/>
            </g>
        </g>
    </g>
    <g id="Grupo_1142" transform="translate(41.716 70.781)">
        <g id="Grupo_1141">
            <path id="Trazado_41862" d="M668.407 859.526h-9.8a2.256 2.256 0 0 0-1.526 1l-2.827 4.335a5.885 5.885 0 0 0-.664 1.826c-.482 2.474-2.936 8.853-15.559 8.853-15.715 0-14.317-23.321-13.825-28.412a2.859 2.859 0 0 0-.482-1.754L613.147 830.9c-.326-.428-1.026-1.147-1.573-1.147h-5.88c-.544 0-1.254.018-1.592-.4l-6.615-8.206a2.245 2.245 0 0 0-1.591-.7h-7.834c-.544 0-1.517.682-1.517 1.229v1.954c0 .544.091.535-.447.535h-5.88a3.057 3.057 0 0 1-1.745-.391l-8.271-6.527a3.166 3.166 0 0 0-1.745-.525h-9.8a.725.725 0 0 0-.716.972l5.36 20.04c.138.529-.181 1.327-.726 1.327h-3.918c-.535 0-.672-.053-.281.328l6.454 6.27a7.968 7.968 0 0 1 1.191 1.341l10.752 17.926a1.073 1.073 0 0 0 1.382.4l2.163-1.079a1.077 1.077 0 0 0 .509-1.347l-12.971-31.874c-.207-.5.065-1.272.6-1.272h1.964c.544 0 1.226.728 1.526 1.182l18.5 27.949a8.512 8.512 0 0 1 .819 1.854l3.381 11.878a3.255 3.255 0 0 0 1.063 1.527l17.995 12.606a2.622 2.622 0 0 0 1.764.366l17.432-3.646a2.883 2.883 0 0 1 1.8.31l8.362 5a1.332 1.332 0 0 0 1.536-.193l2.536-2.418a2.589 2.589 0 0 1 1.671-.572h5.882a.636.636 0 0 0 .535-1l-1.082-2.217a1.516 1.516 0 0 1 .256-1.6l12.332-12.353a4.15 4.15 0 0 0 .928-1.645l1.489-6.117a.88.88 0 0 0-.745-1.136zm0 0" class="cls-2" transform="translate(-557.908 -816.719)"/>
        </g>
    </g>
</svg>
