<svg xmlns="http://www.w3.org/2000/svg" id="Grupo_1193" width="194.704" height="194.704" viewBox="0 0 194.704 194.704">
    <defs>
        <style>
            .cls-4{fill:#fff}
        </style>
    </defs>
    <circle id="Elipse_100" cx="97.352" cy="97.352" r="97.352" fill="#ce3a8c"/>
    <g id="Grupo_1149" transform="translate(129.955 125.586)"/>
    <g id="Grupo_1192" transform="translate(20.878 16.086)">
        <g id="Grupo_1153" transform="translate(76.523 157.808)"/>
        <g id="Grupo_1156" transform="translate(2.623 63.974)">
            <g id="Grupo_1154" transform="translate(0 .31)">
                <circle id="Elipse_101" cx="2.691" cy="2.691" r="2.691" class="cls-4"/>
            </g>
            <g id="Grupo_1155" transform="translate(142.418)">
                <circle id="Elipse_102" cx="2.691" cy="2.691" r="2.691" class="cls-4"/>
            </g>
        </g>
        <g id="Grupo_1189" transform="translate(40.785 30.971)">
            <g id="Grupo_1186">
                <g id="Grupo_1185">
                    <g id="Grupo_1157" transform="translate(34.907 73.907)">
                        <path id="Rectángulo_707" d="M0 0H1.625V20.523H0z" class="cls-4"/>
                    </g>
                    <g id="Grupo_1165">
                        <g id="Grupo_1158" transform="translate(29.26 68.556)">
                            <path id="Trazado_41893" d="M1259.721 883.209a1.128 1.128 0 0 1-.375-.4q-2.9-4.4-5.8-8.805c-.036-.056-.077-.11-.108-.169a.48.48 0 0 1 .386-.708c.059-.006.118 0 .178 0h11.726a1.685 1.685 0 0 1 .2 0 .478.478 0 0 1 .376.683 2.4 2.4 0 0 1-.165.265l-5.753 8.729a1 1 0 0 1-.4.4z" class="cls-4" transform="translate(-1253.382 -873.126)"/>
                        </g>
                        <g id="Grupo_1159" transform="translate(0 25.841)">
                            <path id="Trazado_41894" d="M1216.642 821.006l-.075-.009v-1.606l.075-.009c.026.274 0 .549 0 .823s.025.534 0 .801z" class="cls-4" transform="translate(-1216.567 -819.382)"/>
                        </g>
                        <g id="Grupo_1160" transform="translate(.075 13.832)">
                            <path id="Trazado_41895" d="M1216.661 817.905c.025-.267 0-.534 0-.8s.023-.549 0-.823a12.817 12.817 0 0 1 13.526-11.984 12.8 12.8 0 0 1 6.355 2.113q3.243 2.128 6.48 4.269l8.975 5.915a.694.694 0 0 1 .345.37 1.375 1.375 0 0 1 .552-.489q4.943-3.26 9.887-6.516c1.868-1.231 3.73-2.473 5.609-3.686a12.619 12.619 0 0 1 4.886-1.845 12.209 12.209 0 0 1 2.734-.13 12.842 12.842 0 0 1 11.749 9.927 12.824 12.824 0 0 1 .3 3.142 12.327 12.327 0 0 1-2.852 7.758 12.745 12.745 0 0 1-6.3 4.257 11.786 11.786 0 0 1-2.465.482 12.747 12.747 0 0 1-7.3-1.478c-.65-.35-1.248-.779-1.863-1.183q-4.963-3.269-9.921-6.545l-4.673-3.081a.738.738 0 0 1-.339-.384.831.831 0 0 1-.429.442l-13.271 8.757c-.843.556-1.678 1.128-2.535 1.663a12.326 12.326 0 0 1-4.7 1.719 12.818 12.818 0 0 1-2.934.112 12.37 12.37 0 0 1-5.966-2.039 12.9 12.9 0 0 1-5.246-6.76 11.643 11.643 0 0 1-.604-3.183z" class="cls-4" transform="translate(-1216.661 -804.273)"/>
                        </g>
                        <g id="Grupo_1161" transform="translate(22.506)">
                            <path id="Trazado_41896" d="M1253.207 792.682a.44.44 0 0 0-.121-.172 10.8 10.8 0 0 0-6-3.359 11.052 11.052 0 0 0-1.392-.175.821.821 0 0 1-.8-.947c.011-.111.017-.223.021-.334a.836.836 0 0 1 .912-.825 13.12 13.12 0 0 1 3.8.808 12.9 12.9 0 0 1 4.7 3.078 9.711 9.711 0 0 1 .88 1.007.274.274 0 0 0 .336.112 10.728 10.728 0 0 1 3.027-.308 10.194 10.194 0 0 1 2.158.3.324.324 0 0 0 .39-.13 12.819 12.819 0 0 1 7.6-4.64 11.985 11.985 0 0 1 1.788-.226.754.754 0 0 1 .79.469 1.692 1.692 0 0 1 .079 1.05.79.79 0 0 1-.781.586 10.85 10.85 0 0 0-7.39 3.542l-.06.067c-.061.062-.064.11.024.153.133.066.264.135.394.209a11.231 11.231 0 0 1 5.6 7.481c.031.129.046.263.076.393a.5.5 0 0 1-.248.568c-.385.254-.769.509-1.154.761l-6.335 4.165c-.994.653-1.99 1.3-2.979 1.963a.59.59 0 0 1-.736 0q-4.011-2.648-8.028-5.284l-2.367-1.555c-.336-.221-.387-.337-.306-.726a11.2 11.2 0 0 1 5.943-7.925l.138-.072a.394.394 0 0 0 .041-.034z" class="cls-4" transform="translate(-1244.884 -786.87)"/>
                        </g>
                        <g id="Grupo_1162" transform="translate(20.72 34.761)">
                            <path id="Trazado_41897" d="M1257.657 842.344H1243.116a.482.482 0 0 1-.455-.639 12.654 12.654 0 0 1 .688-1.834 15.629 15.629 0 0 1 7.9-7.892 15.694 15.694 0 0 1 7.248-1.346 15.728 15.728 0 0 1 14.074 10.717c.041.119.072.242.114.361a.49.49 0 0 1-.443.633c-.074.006-.149 0-.223 0z" class="cls-4" transform="translate(-1242.638 -830.606)"/>
                        </g>
                        <g id="Grupo_1163" transform="translate(20.074 50.662)">
                            <path id="Trazado_41898" d="M1257.508 850.614h15.141a.486.486 0 0 1 .535.542 12.66 12.66 0 0 1-.143 1.552 15.422 15.422 0 0 1-1.106 3.911c-.1.238-.217.473-.327.708a.477.477 0 0 1-.478.3h-27.205a.517.517 0 0 1-.528-.329 16.1 16.1 0 0 1-1.036-2.748 15.157 15.157 0 0 1-.5-2.869c-.014-.186-.034-.37-.034-.556a.48.48 0 0 1 .5-.51h.223z" class="cls-4" transform="translate(-1241.824 -850.613)"/>
                        </g>
                        <g id="Grupo_1164" transform="translate(24.675 61.849)">
                            <path id="Trazado_41899" d="M1258.695 864.693h10.5a1.6 1.6 0 0 0 .224 0 .293.293 0 0 1 .268.481c-.1.129-.181.273-.271.409-.282.428-.568.854-.846 1.284a.748.748 0 0 1-.672.366h-18.31a1.323 1.323 0 0 1-.354-.029.717.717 0 0 1-.42-.312c-.377-.571-.754-1.141-1.126-1.715-.168-.26-.053-.472.254-.482h.223z" class="cls-4" transform="translate(-1247.613 -864.688)"/>
                        </g>
                    </g>
                    <g id="Grupo_1182" transform="translate(4.159 58.471)">
                        <g id="Grupo_1173">
                            <g id="Grupo_1166" transform="translate(12.468 11.954)">
                                <path id="Trazado_41900" d="M1240.08 878.055a.256.256 0 0 1-.122 0l-2.344-.346c-.015 0-.03 0-.045-.007a.108.108 0 0 1-.061-.171l.026-.03 1.755-1.965c.01-.011.02-.024.031-.033a.108.108 0 0 1 .171.039.642.642 0 0 1 .02.068l.6 2.271a.23.23 0 0 1 .007.127z" class="cls-4" transform="translate(-1237.486 -875.478)"/>
                            </g>
                            <g id="Grupo_1167" transform="translate(.884 12.584)">
                                <path id="Trazado_41901" d="M1223.193 876.513l-.012.011-.269-.24.01-.014a1.817 1.817 0 0 1 .138.122 1.777 1.777 0 0 1 .133.121z" class="cls-4" transform="translate(-1222.912 -876.271)"/>
                            </g>
                            <g id="Grupo_1168" transform="translate(.064)">
                                <path id="Trazado_41902" d="M1222.982 873.264a1.718 1.718 0 0 0-.134-.12c-.046-.041-.088-.086-.138-.122a2.877 2.877 0 0 1 .016-4.061 2.872 2.872 0 0 1 1.305-.749c.561-.15 1.124-.3 1.686-.448l2.334-.619a.155.155 0 0 1 .114 0 .31.31 0 0 1 0-.166l.387-2.632c.074-.5.144-1 .222-1.493a2.849 2.849 0 0 1 .422-1.1 2.766 2.766 0 0 1 .388-.478 2.885 2.885 0 0 1 3.422-.484 2.907 2.907 0 0 1 .571.42 2.775 2.775 0 0 1 .874 1.64 2.87 2.87 0 0 1-.229 1.693 2.667 2.667 0 0 1-.288.485 2.866 2.866 0 0 1-1.34 1c-.156.056-.317.093-.477.135l-2.582.684-1.216.323a.169.169 0 0 1-.115 0 .188.188 0 0 1 .01.138l-.519 3.535c-.032.225-.062.451-.1.674a2.779 2.779 0 0 1-.415 1.045 2.906 2.906 0 0 1-.421.509 2.781 2.781 0 0 1-1.234.695 2.9 2.9 0 0 1-1.919-.132 2.615 2.615 0 0 1-.624-.372z" class="cls-4" transform="translate(-1221.88 -860.437)"/>
                            </g>
                            <g id="Grupo_1169" transform="translate(0 .589)">
                                <path id="Trazado_41903" d="M1223.939 865.02a.1.1 0 0 0-.047-.005 2.427 2.427 0 0 0-1.462.5 2.482 2.482 0 0 0-.238.207.184.184 0 0 1-.279-.007l-.052-.053a.188.188 0 0 1 0-.277 2.933 2.933 0 0 1 .7-.516 2.9 2.9 0 0 1 1.219-.328 2.231 2.231 0 0 1 .3 0 .062.062 0 0 0 .069-.039 2.418 2.418 0 0 1 .4-.554 2.327 2.327 0 0 1 .374-.317.073.073 0 0 0 .036-.084 2.88 2.88 0 0 1 .36-1.969 2.739 2.739 0 0 1 .23-.334.17.17 0 0 1 .2-.062.378.378 0 0 1 .188.144.177.177 0 0 1-.019.218 2.437 2.437 0 0 0-.512 1.769v.02c0 .019.009.027.03.019l.094-.035a2.526 2.526 0 0 1 2.092.181c.026.014.051.032.077.046a.112.112 0 0 1 .059.126l-.045.308-.25 1.686c-.039.265-.079.529-.116.793a.134.134 0 0 1-.11.124q-1.044.275-2.088.555l-.615.164c-.087.024-.115.015-.168-.057a2.519 2.519 0 0 1-.439-2.182l.009-.034z" class="cls-4" transform="translate(-1221.8 -861.178)"/>
                            </g>
                            <g id="Grupo_1170" transform="translate(6.832 6.759)">
                                <path id="Trazado_41904" d="M1233.259 871.879l-2.147 2.4a.408.408 0 0 1-.03.033.108.108 0 0 1-.175-.02 2.885 2.885 0 0 1-.2-.389 3.52 3.52 0 0 1-.141-2.506 3.536 3.536 0 0 1 .859-1.416 3.534 3.534 0 0 1 3.9-.756c.026.011.052.025.078.035a.111.111 0 0 1 .04.169c-.01.013-.022.025-.033.037z" class="cls-4" transform="translate(-1230.395 -868.941)"/>
                            </g>
                            <g id="Grupo_1171" transform="translate(8.093 7.733)">
                                <path id="Trazado_41905" d="M1234.285 872.751l2.233-2.5.033-.037a.109.109 0 0 1 .171-.008 2.79 2.79 0 0 1 .238.256 3.447 3.447 0 0 1 .49.771c.025.053.047.107.07.161a.108.108 0 0 1-.022.125l-.027.03-4.022 4.5-.023.026a.116.116 0 0 1-.134.039 3.633 3.633 0 0 1-.616-.238 3.437 3.437 0 0 1-.556-.345c-.033-.025-.067-.05-.1-.077a.108.108 0 0 1-.011-.161c.01-.013.022-.025.033-.037z" class="cls-4" transform="translate(-1231.982 -870.167)"/>
                            </g>
                            <g id="Grupo_1172" transform="translate(10.639 10.163)">
                                <path id="Trazado_41906" d="M1236.818 875.054l1.572-1.761a.336.336 0 0 0 .033-.037.066.066 0 0 1 .121.027c.006.036.019.071.029.107l.088.335a.169.169 0 0 1-.039.167l-.02.022-2.721 3.047a.314.314 0 0 1-.058.055.16.16 0 0 1-.115.024l-.456-.068c-.068-.011-.087-.062-.043-.115l.033-.037z" class="cls-4" transform="translate(-1235.185 -873.225)"/>
                            </g>
                        </g>
                        <g id="Grupo_1181" transform="translate(48.051)">
                            <g id="Grupo_1174" transform="translate(0 11.954)">
                                <path id="Trazado_41907" d="M1282.3 878.055a.259.259 0 0 0 .123 0l2.344-.346c.015 0 .03 0 .045-.007a.108.108 0 0 0 .061-.171l-.027-.03-1.755-1.965a.316.316 0 0 0-.03-.033.107.107 0 0 0-.171.039.614.614 0 0 0-.02.068l-.6 2.271a.225.225 0 0 0-.007.127z" class="cls-4" transform="translate(-1282.257 -875.478)"/>
                            </g>
                            <g id="Grupo_1175" transform="translate(13.942 12.584)">
                                <path id="Trazado_41908" d="M1299.8 876.513l.013.011.27-.24-.01-.014c-.05.037-.093.081-.139.122s-.094.078-.134.121z" class="cls-4" transform="translate(-1299.799 -876.271)"/>
                            </g>
                            <g id="Grupo_1176" transform="translate(2.432)">
                                <path id="Trazado_41909" d="M1296.827 873.264c.041-.044.089-.08.134-.12s.089-.086.139-.122a2.883 2.883 0 0 0 .418-3.507 2.792 2.792 0 0 0-.434-.555 2.875 2.875 0 0 0-1.3-.749c-.562-.15-1.124-.3-1.686-.448l-2.335-.619a.155.155 0 0 0-.114 0 .3.3 0 0 0 0-.166l-.387-2.632c-.073-.5-.144-1-.222-1.493a2.824 2.824 0 0 0-.422-1.1 2.721 2.721 0 0 0-.387-.478 2.886 2.886 0 0 0-3.422-.484 2.924 2.924 0 0 0-.572.42 2.769 2.769 0 0 0-.874 1.64 2.862 2.862 0 0 0 .229 1.693 2.619 2.619 0 0 0 .288.485 2.862 2.862 0 0 0 1.34 1c.156.056.317.093.477.135l2.582.684 1.216.323a.169.169 0 0 0 .115 0 .184.184 0 0 0-.01.138l.518 3.535c.034.225.062.451.1.674a2.763 2.763 0 0 0 .415 1.045 2.869 2.869 0 0 0 .42.509 2.785 2.785 0 0 0 1.235.695 2.9 2.9 0 0 0 1.919-.132 2.6 2.6 0 0 0 .62-.371z" class="cls-4" transform="translate(-1285.317 -860.437)"/>
                            </g>
                            <g id="Grupo_1177" transform="translate(9.145 .589)">
                                <path id="Trazado_41910" d="M1297.588 865.02a.1.1 0 0 1 .047-.005 2.427 2.427 0 0 1 1.462.5 2.555 2.555 0 0 1 .238.207.183.183 0 0 0 .278-.007l.053-.053a.188.188 0 0 0 0-.277 2.953 2.953 0 0 0-.7-.516 2.906 2.906 0 0 0-1.219-.328 2.232 2.232 0 0 0-.3 0 .062.062 0 0 1-.069-.039 2.444 2.444 0 0 0-.4-.554 2.342 2.342 0 0 0-.373-.317.072.072 0 0 1-.037-.084 2.883 2.883 0 0 0-.36-1.969 2.712 2.712 0 0 0-.23-.334.17.17 0 0 0-.2-.062.378.378 0 0 0-.188.144.177.177 0 0 0 .018.218 2.444 2.444 0 0 1 .512 1.769v.02c0 .019-.009.027-.029.019l-.094-.035a2.525 2.525 0 0 0-2.092.181c-.026.014-.052.032-.078.046a.112.112 0 0 0-.058.126l.045.308.25 1.686c.04.265.08.529.117.793a.133.133 0 0 0 .109.124q1.044.275 2.087.555l.615.164c.088.024.114.015.168-.057a2.515 2.515 0 0 0 .439-2.182l-.008-.034z" class="cls-4" transform="translate(-1293.763 -861.178)"/>
                            </g>
                            <g id="Grupo_1178" transform="translate(3.207 6.759)">
                                <path id="Trazado_41911" d="M1288.5 871.879l2.147 2.4a.366.366 0 0 0 .03.033.108.108 0 0 0 .175-.02 2.8 2.8 0 0 0 .2-.389 3.511 3.511 0 0 0 .141-2.506 3.409 3.409 0 0 0-.406-.857 3.538 3.538 0 0 0-2.378-1.555 3.5 3.5 0 0 0-1.978.239c-.026.011-.052.025-.078.035a.11.11 0 0 0-.04.169c.01.013.022.025.033.037z" class="cls-4" transform="translate(-1286.292 -868.941)"/>
                            </g>
                            <g id="Grupo_1179" transform="translate(1.466 7.733)">
                                <path id="Trazado_41912" d="M1287.348 872.751l-2.232-2.5-.033-.037a.109.109 0 0 0-.171-.008 2.71 2.71 0 0 0-.239.256 3.446 3.446 0 0 0-.49.771c-.025.053-.047.107-.07.161a.107.107 0 0 0 .021.125l.026.03 4.021 4.5.024.026a.115.115 0 0 0 .133.039 3.614 3.614 0 0 0 .616-.238 3.4 3.4 0 0 0 .556-.345c.033-.025.068-.05.1-.077a.109.109 0 0 0 .011-.161l-.033-.037z" class="cls-4" transform="translate(-1284.101 -870.167)"/>
                            </g>
                            <g id="Grupo_1180" transform="translate(.987 10.163)">
                                <path id="Trazado_41913" d="M1285.348 875.054l-1.572-1.761a.422.422 0 0 1-.033-.037.066.066 0 0 0-.121.027c-.006.036-.018.071-.028.107l-.088.335a.167.167 0 0 0 .039.167l.02.022 2.721 3.047a.263.263 0 0 0 .058.055.159.159 0 0 0 .115.024l.455-.068c.069-.011.087-.062.043-.115-.01-.013-.022-.025-.033-.037z" class="cls-4" transform="translate(-1283.498 -873.225)"/>
                            </g>
                        </g>
                    </g>
                    <g id="Grupo_1183" transform="translate(19.673 73.094)">
                        <path id="Trazado_41914" d="M1257.4 903.954a.814.814 0 0 1-.8-.71c-2.2-17.233-14.658-22.793-14.783-22.849a.812.812 0 0 1 .64-1.493c.548.234 13.43 5.944 15.756 24.135a.814.814 0 0 1-.7.91.785.785 0 0 1-.113.007z" class="cls-4" transform="translate(-1241.32 -878.836)"/>
                    </g>
                    <g id="Grupo_1184" transform="translate(34.907 73.095)">
                        <path id="Trazado_41915" d="M1261.3 903.954a.773.773 0 0 1-.1-.006.813.813 0 0 1-.7-.91c2.325-18.191 15.207-23.9 15.754-24.135a.812.812 0 0 1 .64 1.493c-.125.056-12.578 5.616-14.781 22.849a.814.814 0 0 1-.813.709z" class="cls-4" transform="translate(-1260.487 -878.837)"/>
                    </g>
                </g>
            </g>
            <g id="Grupo_1187" transform="translate(18.884 87.782)">
                <path id="Trazado_41916" d="M1257.165 908.17a19.484 19.484 0 0 1-16.725-9.572.813.813 0 1 1 1.4-.826 17.775 17.775 0 0 0 30.682-.051.813.813 0 0 1 1.4.819 19.48 19.48 0 0 1-16.757 9.63z" class="cls-4" transform="translate(-1240.327 -897.317)"/>
            </g>
            <g id="Grupo_1188" transform="translate(12.155 88.187)">
                <path id="Trazado_41917" d="M1255.42 912.55a27.313 27.313 0 0 1-23.446-13.419.813.813 0 1 1 1.4-.826 25.57 25.57 0 0 0 44.139-.075.813.813 0 0 1 1.4.819 27.3 27.3 0 0 1-23.493 13.501z" class="cls-4" transform="translate(-1231.861 -897.826)"/>
            </g>
        </g>
        <g id="Grupo_1190" transform="translate(0 87.46)">
            <path id="Trazado_41918" d="M1166.3 869.384l-.239-2.329 5.921-.608-4.592-2.189-.025-.262 4.051-3.079-5.924.608-.238-2.329 10.186-1.044.239 2.328-4.241 3.229 4.809 2.3.239 2.329z" class="cls-4" transform="translate(-1165.252 -857.987)"/>
            <path id="Trazado_41919" d="M1171.047 875.94l6.678-1.875.633 2.254-6.481 1.819c-.747.21-1.281.74-.944 1.939s1.068 1.371 1.814 1.162l6.481-1.821.633 2.254-6.678 1.877c-2.114.592-3.84-.686-4.449-2.856s.2-4.159 2.313-4.753z" class="cls-4" transform="translate(-1165.926 -861.252)"/>
            <path id="Trazado_41920" d="M1173.459 889.652l1.886 1.39a1.45 1.45 0 0 0-.224 1.679 1.144 1.144 0 0 0 1.646.732l6.361-2.784.936 2.141-6.358 2.784a3.364 3.364 0 0 1-4.678-1.974 3.614 3.614 0 0 1 .431-3.968z" class="cls-4" transform="translate(-1166.766 -864.451)"/>
            <path id="Trazado_41921" d="M1182.9 906.23l-1.92 1.176-3.36-5.487 8.727-5.346 3.322 5.422-1.919 1.178-2.1-3.429-1.446.886 1.908 3.116-1.894 1.16-1.911-3.117-1.546.947z" class="cls-4" transform="translate(-1167.789 -865.871)"/>
            <path id="Trazado_41922" d="M1189.379 912.885l-.708-.856-2.589 2.144-1.493-1.8 7.883-6.528 2.611 3.152a3.5 3.5 0 0 1-.465 4.94 3.37 3.37 0 0 1-3.488.441l-1.5 4.076-1.6-1.938zm.869-2.163l1.119 1.351a1.325 1.325 0 0 0 2.027-1.679l-1.119-1.351z" class="cls-4" transform="translate(-1169.22 -867.773)"/>
            <path id="Trazado_41923" d="M1200.338 925.525l-1.516 1.667-4.76-4.331 6.888-7.573 4.707 4.282-1.516 1.665-2.976-2.706-1.14 1.254 2.7 2.461-1.5 1.644-2.7-2.459-1.221 1.342z" class="cls-4" transform="translate(-1171.164 -869.712)"/>
            <path id="Trazado_41924" d="M1204.766 928.992l2.326.176a2.146 2.146 0 0 0 .975 2.386c.917.63 1.393.424 1.617.1.355-.521.013-1.055-1.014-2.273s-1.835-2.659-.725-4.276a3.2 3.2 0 0 1 4.6-.627 3.978 3.978 0 0 1 1.784 4.024l-2.283-.162a1.8 1.8 0 0 0-.792-1.98c-.6-.412-1.111-.317-1.343.021-.265.386-.241.792.8 2.093 1.014 1.261 2.146 2.694.92 4.479-1.116 1.628-3.081 1.7-4.916.446a4.035 4.035 0 0 1-1.949-4.407z" class="cls-4" transform="translate(-1173.337 -871.456)"/>
            <path id="Trazado_41925" d="M1228.386 941.661l-.857 2.085-5.956-2.446 3.892-9.476 5.888 2.419-.856 2.085-3.722-1.529-.646 1.57 3.384 1.39-.844 2.059-3.384-1.391-.691 1.678z" class="cls-4" transform="translate(-1176.81 -873.105)"/>
            <path id="Trazado_41926" d="M1243.61 948.193l-2.281-.525 1.341-5.8-3.56 3.638-.257-.06-1.6-4.83-1.342 5.8-2.281-.529 2.308-9.978 2.281.525 1.684 5.06 3.734-3.808 2.281.529z" class="cls-4" transform="translate(-1179.284 -873.943)"/>
            <path id="Trazado_41927" d="M1259.465 943.043a3.518 3.518 0 0 1-3.778 3.3l-1.533-.088-.183 3.213-2.337-.134.583-10.224 3.87.221a3.517 3.517 0 0 1 3.378 3.712zm-2.337-.135a1.251 1.251 0 0 0-1.167-1.385l-1.533-.088-.149 2.631 1.534.087a1.252 1.252 0 0 0 1.316-1.245z" class="cls-4" transform="translate(-1182.979 -874.601)"/>
            <path id="Trazado_41928" d="M1268.448 946.008l-1.106.1.3 3.349-2.33.211-.923-10.2 4.078-.37a3.5 3.5 0 0 1 3.813 3.182 3.373 3.373 0 0 1-1.613 3.125l2.51 3.546-2.505.227zm-1.292-1.941l1.748-.157a1.324 1.324 0 0 0-.236-2.62l-1.748.158z" class="cls-4" transform="translate(-1185.596 -874.596)"/>
            <path id="Trazado_41929" d="M1284.924 944.058l.519 2.194-6.265 1.488-2.365-9.97 6.194-1.469.521 2.191-3.916.93.392 1.654 3.561-.845.513 2.164-3.561.844.42 1.765z" class="cls-4" transform="translate(-1188.145 -874.024)"/>
            <path id="Trazado_41930" d="M1294.886 931.835l3.743 9.524L1297 942l-5.7-3.726 2.032 5.168-2.178.856-3.744-9.525 1.633-.639 5.7 3.725-2.032-5.172z" class="cls-4" transform="translate(-1190.319 -873.107)"/>
            <path id="Trazado_41931" d="M1310.211 929.353a4.96 4.96 0 0 1-1.621 6.956l-3.509 2.116-5.286-8.776 3.51-2.117a4.963 4.963 0 0 1 6.906 1.821zm-1.932 1.165a2.634 2.634 0 0 0-3.811-1.054l-1.505.906 2.961 4.914 1.5-.905a2.637 2.637 0 0 0 .855-3.861z" class="cls-4" transform="translate(-1192.862 -872.075)"/>
            <path id="Trazado_41932" d="M1321.87 923.683l1.442 1.732-4.952 4.115-6.547-7.877 4.9-4.068 1.442 1.733-3.1 2.572 1.084 1.307 2.814-2.34 1.421 1.711-2.814 2.338 1.161 1.395z" class="cls-4" transform="translate(-1195.328 -870.183)"/>
            <path id="Trazado_41933" d="M1329.955 911.027a4.96 4.96 0 0 1 .528 7.121l-2.719 3.063-7.659-6.8 2.718-3.066a4.961 4.961 0 0 1 7.132-.318zm-1.495 1.686a2.638 2.638 0 0 0-3.951.13l-1.165 1.315 4.289 3.806 1.167-1.311a2.64 2.64 0 0 0-.34-3.94z" class="cls-4" transform="translate(-1197.03 -868.559)"/>
            <path id="Trazado_41934" d="M1333.857 906.213a5.326 5.326 0 1 1 7.324-1.756 5.282 5.282 0 0 1-7.324 1.756zm4.345-7.085a2.985 2.985 0 1 0 1.033 4.135 2.913 2.913 0 0 0-1.035-4.134z" class="cls-4" transform="translate(-1199.327 -865.821)"/>
            <path id="Trazado_41935" d="M1344.772 889.233l-.414 1.03 3.119 1.256-.873 2.168-9.494-3.816 1.527-3.8a3.5 3.5 0 0 1 4.564-1.946 3.37 3.37 0 0 1 2.051 2.857l4.3-.621-.94 2.332zm-2.313.267l.654-1.627a1.325 1.325 0 0 0-2.442-.983l-.653 1.628z" class="cls-4" transform="translate(-1200.519 -863.264)"/>
            <path id="Trazado_41936" d="M1351.447 874.18l-.849 3.705 1.454.86-.573 2.492-9.2-5.681.667-2.907 10.756-1.1-.573 2.493zm-2.294.194l-3.932.327 3.4 2.012z" class="cls-4" transform="translate(-1201.58 -860.736)"/>
            <path id="Trazado_41937" d="M1352.1 865.949l-1.019-2.1a2.145 2.145 0 0 0 1.571-2.039c.081-1.11-.336-1.419-.73-1.447-.627-.048-.917.519-1.452 2.02-.533 1.484-1.37 2.919-3.324 2.775a3.2 3.2 0 0 1-2.856-3.654 3.967 3.967 0 0 1 2.576-3.564l1.008 2.052a1.8 1.8 0 0 0-1.309 1.679c-.054.729.284 1.121.691 1.149.467.033.807-.188 1.4-1.745.579-1.511 1.245-3.206 3.4-3.049 1.969.144 3.019 1.8 2.857 4.019a4.027 4.027 0 0 1-2.813 3.904z" class="cls-4" transform="translate(-1201.991 -857.944)"/>
        </g>
        <g id="Grupo_1191" transform="translate(6.496)">
            <path id="Trazado_41938" d="M1179.006 804.767l.018-2.333a2.149 2.149 0 0 0 2.317-1.13c.565-.959.329-1.421-.011-1.622-.543-.321-1.054.057-2.2 1.165s-2.528 2.009-4.217 1.011a3.2 3.2 0 0 1-.935-4.546 3.972 3.972 0 0 1 3.9-2.051l-.009 2.291a1.794 1.794 0 0 0-1.921.921c-.373.63-.245 1.13.11 1.339.4.238.806.188 2.033-.939 1.192-1.1 2.543-2.324 4.41-1.222 1.7 1 1.905 2.962.775 4.877a4.032 4.032 0 0 1-4.27 2.239z" class="cls-4" transform="translate(-1173.426 -757.617)"/>
            <path id="Trazado_41939" d="M1189.788 788.489l1.775 1.391-3.968 5.073-8.07-6.316 3.924-5.014 1.776 1.388-2.481 3.17 1.337 1.048 2.256-2.883 1.752 1.371-2.255 2.883 1.43 1.117z" class="cls-4" transform="translate(-1174.677 -755.232)"/>
            <path id="Trazado_41940" d="M1202.243 778.448l-1.71 1.6-4.064-4.348 1.033 4.981-.192.18-4.9-1.364 4.065 4.347-1.708 1.6-6.993-7.478 1.709-1.6 5.137 1.423-1.076-5.22 1.708-1.6z" class="cls-4" transform="translate(-1176.37 -752.636)"/>
            <path id="Trazado_41941" d="M1203.391 766.162l5.952 8.327-1.9 1.361-5.951-8.327z" class="cls-4" transform="translate(-1179.184 -751.649)"/>
            <path id="Trazado_41942" d="M1217.193 767l1.127 1.951-5.191 3-5.129-8.859 2.025-1.172 4 6.915z" class="cls-4" transform="translate(-1180.521 -750.779)"/>
            <path id="Trazado_41943" d="M1227.075 762.475l.889 2.07-5.51 2.364-4.036-9.4 2.149-.924 3.149 7.337z" class="cls-4" transform="translate(-1182.658 -749.682)"/>
            <path id="Trazado_41944" d="M1237.791 758.729l.637 2.159-6.173 1.813-2.883-9.82 6.1-1.792.635 2.16-3.857 1.133.478 1.625 3.506-1.028.627 2.134-3.507 1.028.509 1.74z" class="cls-4" transform="translate(-1184.906 -748.556)"/>
            <path id="Trazado_41945" d="M1246.319 756.1l-1.1.168.51 3.329-2.316.354-1.547-10.13 4.053-.619a3.506 3.506 0 0 1 4 2.943 3.38 3.38 0 0 1-1.42 3.222l2.725 3.389-2.489.381zm-1.41-1.857l1.737-.267a1.326 1.326 0 0 0-.4-2.6l-1.738.265z" class="cls-4" transform="translate(-1187.47 -748.16)"/>
            <path id="Trazado_41946" d="M1255.642 753.183a5.325 5.325 0 1 1 5.282 5.369 5.278 5.278 0 0 1-5.282-5.369zm8.308.067a2.985 2.985 0 1 0-3.007 3.019 2.911 2.911 0 0 0 3.007-3.02z" class="cls-4" transform="translate(-1190.297 -747.902)"/>
            <path id="Trazado_41947" d="M1288.361 751.907l-2.5 9.934-1.7-.427-2.474-6.354-1.356 5.39-2.27-.568 2.5-9.933 1.7.428 2.477 6.353 1.353-5.391z" class="cls-4" transform="translate(-1194.898 -748.322)"/>
            <path id="Trazado_41948" d="M1292.746 760.545l2.69-6.392 2.157.906-2.611 6.2c-.3.716-.218 1.464.928 1.946s1.738.016 2.038-.7l2.612-6.2 2.157.908-2.689 6.392c-.851 2.023-2.927 2.578-5 1.7s-3.134-2.738-2.282-4.76z" class="cls-4" transform="translate(-1197.851 -749.185)"/>
            <path id="Trazado_41949" d="M1313.887 765.842l-2.262-1.349-4.1 6.861-2.009-1.2 4.094-6.861-2.26-1.351 1.154-1.935 6.535 3.9z" class="cls-4" transform="translate(-1200.533 -750.386)"/>
            <path id="Trazado_41950" d="M1317.869 774.956l-.869-.694-2.1 2.634-1.832-1.459 6.381-8.013 3.206 2.553a3.5 3.5 0 0 1 .557 4.936 3.368 3.368 0 0 1-3.326 1.146l-.64 4.3-1.968-1.569zm.408-2.3l1.374 1.1a1.326 1.326 0 0 0 1.64-2.06l-1.372-1.1z" class="cls-4" transform="translate(-1202.083 -751.908)"/>
            <path id="Trazado_41951" d="M1331.752 778.318l-7.224 7.256-1.66-1.652 7.225-7.255z" class="cls-4" transform="translate(-1204.093 -753.805)"/>
            <path id="Trazado_41952" d="M1329.159 787.136l2.181.829a2.148 2.148 0 0 0 .254 2.566c.7.863 1.216.8 1.524.552.489-.4.311-1.007-.328-2.467s-1-3.07.519-4.305a3.2 3.2 0 0 1 4.586.705 3.974 3.974 0 0 1 .567 4.366l-2.143-.8a1.794 1.794 0 0 0-.2-2.122c-.46-.568-.974-.621-1.293-.364-.364.3-.458.691.174 2.233.614 1.5 1.291 3.193-.389 4.557-1.535 1.245-3.438.756-4.84-.971a4.028 4.028 0 0 1-.612-4.779z" class="cls-4" transform="translate(-1205.276 -755.232)"/>
            <path id="Trazado_41953" d="M1339.142 803.31l-1.944-3.271-1.647.382-1.309-2.2 10.586-2.246 1.527 2.567-7.024 8.232-1.31-2.2zm1.527-1.727l2.62-2.956-3.844.892z" class="cls-4" transform="translate(-1206.427 -757.767)"/>
        </g>
    </g>
</svg>
