<svg xmlns="http://www.w3.org/2000/svg" id="Grupo_1200" width="194.704" height="194.704" viewBox="0 0 194.704 194.704">
    <defs>
        <style>
            .cls-1{fill:#ca9ec9}.cls-2{fill:#fff}
        </style>
    </defs>
    <circle id="Elipse_103" cx="97.352" cy="97.352" r="97.352" class="cls-1"/>
    <g id="Grupo_1194" transform="translate(46.295 52.261)">
        <path id="Trazado_41954" d="M973.481 229.513h-14.64l10.353-10.352a1.331 1.331 0 0 0 0-1.881l-3.449-3.449a1.331 1.331 0 0 0-1.882 0l-5.258 5.258v-36.276a9.286 9.286 0 1 0-18.572 0v13.972a34.946 34.946 0 0 0-32.557 0v-13.972a9.286 9.286 0 1 0-18.572 0v36.275l-5.257-5.258a1.331 1.331 0 0 0-1.882 0l-3.449 3.449a1.331 1.331 0 0 0 0 1.882l10.352 10.352h-14.64a1.331 1.331 0 0 0-1.331 1.33v4.878a1.33 1.33 0 0 0 1.331 1.33h14.639L878.316 247.4a1.331 1.331 0 0 0 0 1.882l3.449 3.449a1.331 1.331 0 0 0 1.882 0l9.119-9.12a34.878 34.878 0 0 0 61.975 0l9.121 9.12a1.33 1.33 0 0 0 1.881 0l3.449-3.449a1.331 1.331 0 0 0 0-1.882l-10.352-10.351h14.64a1.33 1.33 0 0 0 1.33-1.33v-4.878a1.331 1.331 0 0 0-1.329-1.328z" class="cls-2" transform="translate(-872.698 -173.527)"/>
        <circle id="Elipse_104" cx="5.221" cy="5.221" r="5.221" class="cls-1" transform="translate(66.455 44.105)"/>
        <circle id="Elipse_105" cx="5.221" cy="5.221" r="5.221" class="cls-1" transform="translate(25.217 44.105)"/>
        <path id="Trazado_41955" d="M936.25 254.939l4.4-4.583a.971.971 0 0 0-.7-1.644h-8.806a.971.971 0 0 0-.7 1.644l4.4 4.583a.972.972 0 0 0 1.406 0z" class="cls-1" transform="translate(-884.493 -188.956)"/>
    </g>
    <g id="Grupo_1196" transform="translate(19.134 14.944)">
        <g id="Grupo_1195">
            <path id="Trazado_41956" d="M849.7 204.706l-.62-3.333a3.893 3.893 0 0 0 3.848-2.859c.7-1.937.124-2.907-.786-3.234-1.214-.436-2.074.493-3.647 2.667-1.621 2.237-3.544 4.285-6.648 3.169-3.08-1.107-3.93-4.312-2.923-7.112a6.6 6.6 0 0 1 5.761-4.516l.59 3.269a3.413 3.413 0 0 0-3.224 2.372c-.486 1.354-.072 2.4.862 2.734 1 .361 1.767-.076 3.4-2.281 1.749-2.3 3.6-4.739 6.939-3.539 3.057 1.1 4.042 4.221 2.792 7.7-1.197 3.335-3.596 4.949-6.344 4.963z" class="cls-2" transform="translate(-838.524 -139.485)"/>
            <path id="Trazado_41957" d="M847.379 177.468l15.11 8.549L860.8 189l-15.111-8.549z" class="cls-2" transform="translate(-839.995 -137.018)"/>
            <path id="Trazado_41958" d="M860.962 157.076l13.269 11.189-1.679 1.99-12.908-1.155 8.113 6.842-2.206 2.616-13.269-11.189 1.679-1.99 12.889 1.139-8.094-6.826z" class="cls-2" transform="translate(-841.347 -132.833)"/>
            <path id="Trazado_41959" d="M883.574 150.188a8.8 8.8 0 0 1 3.647-12.237 8.649 8.649 0 0 1 8.514.048l-1.782 2.91a5.012 5.012 0 0 0-5.151-.034 5.693 5.693 0 0 0 5.417 10.014 5.014 5.014 0 0 0 2.8-4.308l3.41.1a8.589 8.589 0 0 1-4.619 7.152 8.817 8.817 0 0 1-12.236-3.645z" class="cls-2" transform="translate(-847.531 -128.684)"/>
            <path id="Trazado_41960" d="M913.563 140.554l-2.531.617 1.426 5.855-3.325.81-4.108-16.868 6.747-1.644a5.763 5.763 0 0 1 6.977 4.223 5.658 5.658 0 0 1-2.055 5.708l5.285 5.452-3.591.874zm-3.241-2.3l3.422-.834a2.576 2.576 0 0 0-1.215-4.988l-3.422.834z" class="cls-2" transform="translate(-852.171 -127.104)"/>
            <path id="Trazado_41961" d="M928.972 138.255l.188-11.681 3.4.055-.184 11.408c-.027 1.687.845 2.966 3.177 3s3.244-1.213 3.271-2.9l.184-11.408 3.422.055-.188 11.682c-.06 3.745-2.925 5.981-6.744 5.919-3.798-.058-6.587-2.385-6.526-6.13z" class="cls-2" transform="translate(-857.085 -126.574)"/>
            <path id="Trazado_41962" d="M960.954 144.234l-.755 3.186-10.449-2.473 4-16.894 10.329 2.445-.753 3.185-7-1.656-.851 3.6 6.4 1.514-.743 3.137-6.395-1.513-.9 3.789z" class="cls-2" transform="translate(-861.349 -126.878)"/>
            <path id="Trazado_41963" d="M976.677 150.917l-1.374 2.972-9.115-4.215 7.284-15.756 3.106 1.436-5.91 12.785z" class="cls-2" transform="translate(-864.722 -128.081)"/>
            <path id="Trazado_41964" d="M997.509 159.367a8.36 8.36 0 0 1-11.932 1.672l-5.425-4.255 10.714-13.658 5.424 4.255a8.36 8.36 0 0 1 1.219 11.986zm-2.575-2.02c1.974-2.517 1.7-5.54-.664-7.392l-2.731-2.142-6.674 8.507 2.733 2.143c2.36 1.852 5.362 1.401 7.336-1.117z" class="cls-2" transform="translate(-867.588 -129.97)"/>
            <path id="Trazado_41965" d="M1005.28 178.5l-4.192-5.5-3.117 1.064-2.24-2.94 17.493-5.684 2.57 3.374-10.116 15.372-2.254-2.96zm1.9-2.787l4.2-6.191-7.086 2.4z" class="cls-2" transform="translate(-870.785 -134.55)"/>
            <path id="Trazado_41966" d="M1023.042 200.338a8.359 8.359 0 0 1-11.183-4.485l-2.589-6.389 16.087-6.52 2.589 6.389a8.36 8.36 0 0 1-4.904 11.005zm-1.229-3.034c2.965-1.2 4.227-3.961 3.1-6.741l-1.3-3.217-10.021 4.061 1.3 3.217c1.129 2.776 3.956 3.882 6.921 2.676z" class="cls-2" transform="translate(-873.563 -138.142)"/>
        </g>
    </g>
    <g id="Grupo_1199" transform="translate(47.909 152.077)">
        <g id="Grupo_1198">
            <g id="Grupo_1197">
                <path id="Trazado_41967" d="M886.33 314.211l-5.932-3.563-2.5 2.142-3.167-1.9 14.147-11.753 3.636 2.183-3.714 18.022-3.189-1.915zm.734-3.292l1.611-7.306-5.693 4.854z" class="cls-2" transform="translate(-874.729 -299.119)"/>
                <path id="Trazado_41968" d="M917.018 310.186l-4.957 16.639-2.5-.743-4.1-12.3-3.031 10.173-3.28-.978 4.958-16.639 2.5.744 4.107 12.275 3.024-10.15z" class="cls-2" transform="translate(-879.741 -300.598)"/>
                <path id="Trazado_41969" d="M928.755 311.81l-1.876 17.259-3.4-.37 1.876-17.259z" class="cls-2" transform="translate(-884.733 -301.644)"/>
                <path id="Trazado_41970" d="M952.681 328.058l-3.383.32-1.063-11.21-4.1 8.486-.4.038-5.622-7.539 1.06 11.185-3.407.323-1.639-17.284 3.507-.332 5.738 7.7 4.164-8.642 3.506-.331z" class="cls-2" transform="translate(-886.918 -301.508)"/>
                <path id="Trazado_41971" d="M974.439 318.451l-6.449 2.507.161 3.29-3.445 1.339-.626-18.387 3.953-1.536 11.977 13.969-3.468 1.349zm-2.153-2.6l-4.789-5.748.351 7.473z" class="cls-2" transform="translate(-893.065 -300.46)"/>
                <path id="Trazado_41972" d="M993.905 307.157l1.817 2.723-8.355 5.575-9.635-14.441 2.846-1.9 7.818 11.718z" class="cls-2" transform="translate(-895.866 -299.115)"/>
            </g>
        </g>
    </g>
</svg>
