<svg xmlns="http://www.w3.org/2000/svg" id="Grupo_1113" width="194.704" height="194.704" viewBox="0 0 194.704 194.704">
    <defs>
        <style>
            .cls-2{fill:#fff}
        </style>
    </defs>
    <circle id="Elipse_90" cx="97.352" cy="97.352" r="97.352" fill="#00853e"/>
    <g id="Grupo_1111" transform="translate(40.305 14.7)">
        <g id="Grupo_1110">
            <path id="Trazado_41788" d="M242.218 151.845l2.925-2.3 11.575 7.873-4.925-13.1 2.945-2.313 6.12 17.265-3.334 2.619z" class="cls-2" transform="translate(-242.218 -129.498)"/>
            <path id="Trazado_41789" d="M280.245 145.518l1.386 2.965-9.73 4.548-7.351-15.731 9.618-4.495 1.387 2.966-6.517 3.046 1.565 3.348 5.955-2.783 1.365 2.922-5.955 2.783 1.649 3.527z" class="cls-2" transform="translate(-246.801 -127.609)"/>
            <path id="Trazado_41790" d="M303.554 135.327c.916 4.924-1.962 8.839-6.861 9.75a9.027 9.027 0 1 1-3.5-17.709 8.813 8.813 0 0 1 8.174 2.59l-2.567 2.192a5.316 5.316 0 0 0-5.023-1.512 5.524 5.524 0 0 0-4.534 6.67c.59 3.169 3.3 5.136 6.86 4.474 2.682-.5 4.148-2.109 4.37-4.167l-5.168.961-.553-2.973 8.556-1.592z" class="cls-2" transform="translate(-251.15 -126.459)"/>
            <path id="Trazado_41791" d="M322.482 140.917l-6.9-.575-1.3 3.027-3.682-.308 7.5-16.8 4.226.352 4.637 17.808-3.707-.308zm-.8-3.277l-1.783-7.266-2.963 6.87z" class="cls-2" transform="translate(-256.252 -126.267)"/>
            <path id="Trazado_41792" d="M351.978 133.806l-5.832 16.35-2.453-.876-3.441-12.5-3.565 10-3.224-1.149 5.832-16.351 2.453.875 3.449 12.473 3.557-9.974z" class="cls-2" transform="translate(-260.943 -126.886)"/>
            <path id="Trazado_41793" d="M358.379 146.843a9.014 9.014 0 1 1 2.037 12.584 8.928 8.928 0 0 1-2.037-12.584zm11.857 8.529a5.605 5.605 0 1 0-7.866 1.337 5.5 5.5 0 0 0 7.867-1.337z" class="cls-2" transform="translate(-265.7 -129.711)"/>
        </g>
    </g>
    <g id="Grupo_1112" transform="translate(49.955 75.493)">
        <path id="Trazado_41794" d="M348.991 204.088a2.154 2.154 0 0 0-1.991-1.331c-83.591 0-92.64 34.651-92.64 49.551a32.132 32.132 0 0 0 3.557 15.1 3.045 3.045 0 0 0 5.5-.194c4.789-11.2 16.8-34.05 37.09-40.134a3.319 3.319 0 0 1 2.969 5.8c-13.519 10.581-36.657 30.246-38.009 41.851a3.038 3.038 0 0 0 1.257 2.794c6.232 4.536 14.538 7.1 24.26 7.1 27.667 0 33.462-26.327 36.573-40.472a72.956 72.956 0 0 1 20.963-37.72 2.154 2.154 0 0 0 .471-2.345z" class="cls-2" transform="translate(-254.36 -202.757)"/>
    </g>
</svg>
